<mxfile host="app.diagrams.net" modified="2023-11-12T17:22:11.923Z" agent="Mozilla/5.0 (Windows NT 10.0; Win64; x64) AppleWebKit/537.36 (KHTML, like Gecko) Chrome/119.0.0.0 Safari/537.36" etag="xwmbFQdmPit9qfQNej_2" version="22.1.0" type="device">
  <diagram name="Страница — 1" id="mRZ40oLBY3o3glydsohH">
    <mxGraphModel dx="1877" dy="1703" grid="1" gridSize="10" guides="1" tooltips="1" connect="1" arrows="1" fold="1" page="1" pageScale="1" pageWidth="827" pageHeight="1169" math="0" shadow="0">
      <root>
        <mxCell id="0" />
        <mxCell id="1" parent="0" />
        <mxCell id="8NdlcEFQy9pJKiZ9Ffve-25" value="Validator" style="swimlane;fontStyle=0;childLayout=stackLayout;horizontal=1;startSize=26;fillColor=none;horizontalStack=0;resizeParent=1;resizeParentMax=0;resizeLast=0;collapsible=1;marginBottom=0;whiteSpace=wrap;html=1;rounded=0;" parent="1" vertex="1">
          <mxGeometry x="210" y="102" width="340" height="156" as="geometry" />
        </mxCell>
        <mxCell id="8NdlcEFQy9pJKiZ9Ffve-28" value="+&amp;nbsp;AssertValueInRange (int, int, int, string)" style="text;strokeColor=none;fillColor=none;align=left;verticalAlign=top;spacingLeft=4;spacingRight=4;overflow=hidden;rotatable=0;points=[[0,0.5],[1,0.5]];portConstraint=eastwest;whiteSpace=wrap;html=1;rounded=0;fontStyle=4" parent="8NdlcEFQy9pJKiZ9Ffve-25" vertex="1">
          <mxGeometry y="26" width="340" height="26" as="geometry" />
        </mxCell>
        <mxCell id="EkHCMVU59h59knE90Hll-35" value="+&amp;nbsp;AssertValueInRange (double, double, double, string)" style="text;strokeColor=none;fillColor=none;align=left;verticalAlign=top;spacingLeft=4;spacingRight=4;overflow=hidden;rotatable=0;points=[[0,0.5],[1,0.5]];portConstraint=eastwest;whiteSpace=wrap;html=1;rounded=0;fontStyle=4" parent="8NdlcEFQy9pJKiZ9Ffve-25" vertex="1">
          <mxGeometry y="52" width="340" height="26" as="geometry" />
        </mxCell>
        <mxCell id="EkHCMVU59h59knE90Hll-36" value="+&amp;nbsp;CheckStringContainsOnlyEnglishLetters (string)" style="text;strokeColor=none;fillColor=none;align=left;verticalAlign=top;spacingLeft=4;spacingRight=4;overflow=hidden;rotatable=0;points=[[0,0.5],[1,0.5]];portConstraint=eastwest;whiteSpace=wrap;html=1;rounded=0;fontStyle=4" parent="8NdlcEFQy9pJKiZ9Ffve-25" vertex="1">
          <mxGeometry y="78" width="340" height="26" as="geometry" />
        </mxCell>
        <mxCell id="EkHCMVU59h59knE90Hll-37" value="+&amp;nbsp;CheckStringContainsAddress (string)" style="text;strokeColor=none;fillColor=none;align=left;verticalAlign=top;spacingLeft=4;spacingRight=4;overflow=hidden;rotatable=0;points=[[0,0.5],[1,0.5]];portConstraint=eastwest;whiteSpace=wrap;html=1;rounded=0;fontStyle=4" parent="8NdlcEFQy9pJKiZ9Ffve-25" vertex="1">
          <mxGeometry y="104" width="340" height="26" as="geometry" />
        </mxCell>
        <mxCell id="EkHCMVU59h59knE90Hll-38" value="+&amp;nbsp;AssertStringOnLength (string, int, string)" style="text;strokeColor=none;fillColor=none;align=left;verticalAlign=top;spacingLeft=4;spacingRight=4;overflow=hidden;rotatable=0;points=[[0,0.5],[1,0.5]];portConstraint=eastwest;whiteSpace=wrap;html=1;rounded=0;fontStyle=4" parent="8NdlcEFQy9pJKiZ9Ffve-25" vertex="1">
          <mxGeometry y="130" width="340" height="26" as="geometry" />
        </mxCell>
        <mxCell id="EkHCMVU59h59knE90Hll-3" value="Item" style="swimlane;fontStyle=1;align=center;verticalAlign=top;childLayout=stackLayout;horizontal=1;startSize=26;horizontalStack=0;resizeParent=1;resizeParentMax=0;resizeLast=0;collapsible=1;marginBottom=0;whiteSpace=wrap;html=1;" parent="1" vertex="1">
          <mxGeometry x="530" y="280" width="230" height="502" as="geometry" />
        </mxCell>
        <mxCell id="EkHCMVU59h59knE90Hll-13" value="- _id: int" style="text;strokeColor=none;fillColor=none;align=left;verticalAlign=top;spacingLeft=4;spacingRight=4;overflow=hidden;rotatable=0;points=[[0,0.5],[1,0.5]];portConstraint=eastwest;whiteSpace=wrap;html=1;" parent="EkHCMVU59h59knE90Hll-3" vertex="1">
          <mxGeometry y="26" width="230" height="26" as="geometry" />
        </mxCell>
        <mxCell id="EkHCMVU59h59knE90Hll-12" value="- _allItemsCount: int" style="text;strokeColor=none;fillColor=none;align=left;verticalAlign=top;spacingLeft=4;spacingRight=4;overflow=hidden;rotatable=0;points=[[0,0.5],[1,0.5]];portConstraint=eastwest;whiteSpace=wrap;html=1;fontStyle=4" parent="EkHCMVU59h59knE90Hll-3" vertex="1">
          <mxGeometry y="52" width="230" height="26" as="geometry" />
        </mxCell>
        <mxCell id="EkHCMVU59h59knE90Hll-11" value="- _name: string" style="text;strokeColor=none;fillColor=none;align=left;verticalAlign=top;spacingLeft=4;spacingRight=4;overflow=hidden;rotatable=0;points=[[0,0.5],[1,0.5]];portConstraint=eastwest;whiteSpace=wrap;html=1;" parent="EkHCMVU59h59knE90Hll-3" vertex="1">
          <mxGeometry y="78" width="230" height="26" as="geometry" />
        </mxCell>
        <mxCell id="EkHCMVU59h59knE90Hll-8" value="- _info: string" style="text;strokeColor=none;fillColor=none;align=left;verticalAlign=top;spacingLeft=4;spacingRight=4;overflow=hidden;rotatable=0;points=[[0,0.5],[1,0.5]];portConstraint=eastwest;whiteSpace=wrap;html=1;" parent="EkHCMVU59h59knE90Hll-3" vertex="1">
          <mxGeometry y="104" width="230" height="26" as="geometry" />
        </mxCell>
        <mxCell id="EkHCMVU59h59knE90Hll-4" value="- _cost: int" style="text;strokeColor=none;fillColor=none;align=left;verticalAlign=top;spacingLeft=4;spacingRight=4;overflow=hidden;rotatable=0;points=[[0,0.5],[1,0.5]];portConstraint=eastwest;whiteSpace=wrap;html=1;" parent="EkHCMVU59h59knE90Hll-3" vertex="1">
          <mxGeometry y="130" width="230" height="26" as="geometry" />
        </mxCell>
        <mxCell id="EkHCMVU59h59knE90Hll-5" value="" style="line;strokeWidth=1;fillColor=none;align=left;verticalAlign=middle;spacingTop=-1;spacingLeft=3;spacingRight=3;rotatable=0;labelPosition=right;points=[];portConstraint=eastwest;strokeColor=inherit;" parent="EkHCMVU59h59knE90Hll-3" vertex="1">
          <mxGeometry y="156" width="230" height="8" as="geometry" />
        </mxCell>
        <mxCell id="EkHCMVU59h59knE90Hll-6" value="+ Name {get;set;}: string" style="text;strokeColor=none;fillColor=none;align=left;verticalAlign=top;spacingLeft=4;spacingRight=4;overflow=hidden;rotatable=0;points=[[0,0.5],[1,0.5]];portConstraint=eastwest;whiteSpace=wrap;html=1;" parent="EkHCMVU59h59knE90Hll-3" vertex="1">
          <mxGeometry y="164" width="230" height="26" as="geometry" />
        </mxCell>
        <mxCell id="EkHCMVU59h59knE90Hll-7" value="+ Info {get;set;}: string" style="text;strokeColor=none;fillColor=none;align=left;verticalAlign=top;spacingLeft=4;spacingRight=4;overflow=hidden;rotatable=0;points=[[0,0.5],[1,0.5]];portConstraint=eastwest;whiteSpace=wrap;html=1;" parent="EkHCMVU59h59knE90Hll-3" vertex="1">
          <mxGeometry y="190" width="230" height="26" as="geometry" />
        </mxCell>
        <mxCell id="EkHCMVU59h59knE90Hll-14" value="+ Cost {get;set;}: int" style="text;strokeColor=none;fillColor=none;align=left;verticalAlign=top;spacingLeft=4;spacingRight=4;overflow=hidden;rotatable=0;points=[[0,0.5],[1,0.5]];portConstraint=eastwest;whiteSpace=wrap;html=1;" parent="EkHCMVU59h59knE90Hll-3" vertex="1">
          <mxGeometry y="216" width="230" height="26" as="geometry" />
        </mxCell>
        <mxCell id="EkHCMVU59h59knE90Hll-15" value="+ AllItemsCount {get:private set;}: int" style="text;strokeColor=none;fillColor=none;align=left;verticalAlign=top;spacingLeft=4;spacingRight=4;overflow=hidden;rotatable=0;points=[[0,0.5],[1,0.5]];portConstraint=eastwest;whiteSpace=wrap;html=1;fontStyle=0" parent="EkHCMVU59h59knE90Hll-3" vertex="1">
          <mxGeometry y="242" width="230" height="26" as="geometry" />
        </mxCell>
        <mxCell id="EkHCMVU59h59knE90Hll-16" value="+ Id {get;private set;}: int" style="text;strokeColor=none;fillColor=none;align=left;verticalAlign=top;spacingLeft=4;spacingRight=4;overflow=hidden;rotatable=0;points=[[0,0.5],[1,0.5]];portConstraint=eastwest;whiteSpace=wrap;html=1;" parent="EkHCMVU59h59knE90Hll-3" vertex="1">
          <mxGeometry y="268" width="230" height="26" as="geometry" />
        </mxCell>
        <mxCell id="EkHCMVU59h59knE90Hll-17" value="+ Category {get;set;): Category" style="text;strokeColor=none;fillColor=none;align=left;verticalAlign=top;spacingLeft=4;spacingRight=4;overflow=hidden;rotatable=0;points=[[0,0.5],[1,0.5]];portConstraint=eastwest;whiteSpace=wrap;html=1;" parent="EkHCMVU59h59knE90Hll-3" vertex="1">
          <mxGeometry y="294" width="230" height="26" as="geometry" />
        </mxCell>
        <mxCell id="sbkK2AnOCJ7gOjGIv6pn-34" value="+ Item (): void" style="text;strokeColor=none;fillColor=none;align=left;verticalAlign=top;spacingLeft=4;spacingRight=4;overflow=hidden;rotatable=0;points=[[0,0.5],[1,0.5]];portConstraint=eastwest;whiteSpace=wrap;html=1;" parent="EkHCMVU59h59knE90Hll-3" vertex="1">
          <mxGeometry y="320" width="230" height="26" as="geometry" />
        </mxCell>
        <mxCell id="sbkK2AnOCJ7gOjGIv6pn-35" value="+ Item (string, string, inf, Category): void" style="text;strokeColor=none;fillColor=none;align=left;verticalAlign=top;spacingLeft=4;spacingRight=4;overflow=hidden;rotatable=0;points=[[0,0.5],[1,0.5]];portConstraint=eastwest;whiteSpace=wrap;html=1;" parent="EkHCMVU59h59knE90Hll-3" vertex="1">
          <mxGeometry y="346" width="230" height="26" as="geometry" />
        </mxCell>
        <mxCell id="phYLgja38qa1CTjOd_SN-5" value="+ ToString(): string" style="text;strokeColor=none;fillColor=none;align=left;verticalAlign=top;spacingLeft=4;spacingRight=4;overflow=hidden;rotatable=0;points=[[0,0.5],[1,0.5]];portConstraint=eastwest;whiteSpace=wrap;html=1;" parent="EkHCMVU59h59knE90Hll-3" vertex="1">
          <mxGeometry y="372" width="230" height="26" as="geometry" />
        </mxCell>
        <mxCell id="phYLgja38qa1CTjOd_SN-6" value="+ Clone(): object" style="text;strokeColor=none;fillColor=none;align=left;verticalAlign=top;spacingLeft=4;spacingRight=4;overflow=hidden;rotatable=0;points=[[0,0.5],[1,0.5]];portConstraint=eastwest;whiteSpace=wrap;html=1;" parent="EkHCMVU59h59knE90Hll-3" vertex="1">
          <mxGeometry y="398" width="230" height="26" as="geometry" />
        </mxCell>
        <mxCell id="AatP9Vk5JP6GM1xrLjcz-7" value="+ Equals(Item): bool" style="text;strokeColor=none;fillColor=none;align=left;verticalAlign=top;spacingLeft=4;spacingRight=4;overflow=hidden;rotatable=0;points=[[0,0.5],[1,0.5]];portConstraint=eastwest;whiteSpace=wrap;html=1;" parent="EkHCMVU59h59knE90Hll-3" vertex="1">
          <mxGeometry y="424" width="230" height="26" as="geometry" />
        </mxCell>
        <mxCell id="AatP9Vk5JP6GM1xrLjcz-8" value="+ Equals(object): override bool" style="text;strokeColor=none;fillColor=none;align=left;verticalAlign=top;spacingLeft=4;spacingRight=4;overflow=hidden;rotatable=0;points=[[0,0.5],[1,0.5]];portConstraint=eastwest;whiteSpace=wrap;html=1;" parent="EkHCMVU59h59knE90Hll-3" vertex="1">
          <mxGeometry y="450" width="230" height="26" as="geometry" />
        </mxCell>
        <mxCell id="AatP9Vk5JP6GM1xrLjcz-9" value="+ CompareTo(object): int" style="text;strokeColor=none;fillColor=none;align=left;verticalAlign=top;spacingLeft=4;spacingRight=4;overflow=hidden;rotatable=0;points=[[0,0.5],[1,0.5]];portConstraint=eastwest;whiteSpace=wrap;html=1;" parent="EkHCMVU59h59knE90Hll-3" vertex="1">
          <mxGeometry y="476" width="230" height="26" as="geometry" />
        </mxCell>
        <mxCell id="EkHCMVU59h59knE90Hll-18" value="Customer" style="swimlane;fontStyle=1;align=center;verticalAlign=top;childLayout=stackLayout;horizontal=1;startSize=26;horizontalStack=0;resizeParent=1;resizeParentMax=0;resizeLast=0;collapsible=1;marginBottom=0;whiteSpace=wrap;html=1;" parent="1" vertex="1">
          <mxGeometry x="40" y="281" width="240" height="482" as="geometry" />
        </mxCell>
        <mxCell id="EkHCMVU59h59knE90Hll-24" value="- _id: int" style="text;strokeColor=none;fillColor=none;align=left;verticalAlign=top;spacingLeft=4;spacingRight=4;overflow=hidden;rotatable=0;points=[[0,0.5],[1,0.5]];portConstraint=eastwest;whiteSpace=wrap;html=1;" parent="EkHCMVU59h59knE90Hll-18" vertex="1">
          <mxGeometry y="26" width="240" height="26" as="geometry" />
        </mxCell>
        <mxCell id="EkHCMVU59h59knE90Hll-23" value="- _allCustomersCount: int" style="text;strokeColor=none;fillColor=none;align=left;verticalAlign=top;spacingLeft=4;spacingRight=4;overflow=hidden;rotatable=0;points=[[0,0.5],[1,0.5]];portConstraint=eastwest;whiteSpace=wrap;html=1;fontStyle=4" parent="EkHCMVU59h59knE90Hll-18" vertex="1">
          <mxGeometry y="52" width="240" height="26" as="geometry" />
        </mxCell>
        <mxCell id="EkHCMVU59h59knE90Hll-22" value="- _fullname: string" style="text;strokeColor=none;fillColor=none;align=left;verticalAlign=top;spacingLeft=4;spacingRight=4;overflow=hidden;rotatable=0;points=[[0,0.5],[1,0.5]];portConstraint=eastwest;whiteSpace=wrap;html=1;" parent="EkHCMVU59h59knE90Hll-18" vertex="1">
          <mxGeometry y="78" width="240" height="26" as="geometry" />
        </mxCell>
        <mxCell id="EkHCMVU59h59knE90Hll-19" value="- _address: Address" style="text;strokeColor=none;fillColor=none;align=left;verticalAlign=top;spacingLeft=4;spacingRight=4;overflow=hidden;rotatable=0;points=[[0,0.5],[1,0.5]];portConstraint=eastwest;whiteSpace=wrap;html=1;" parent="EkHCMVU59h59knE90Hll-18" vertex="1">
          <mxGeometry y="104" width="240" height="26" as="geometry" />
        </mxCell>
        <mxCell id="-F8Q1V_g5fa-UAAVx8Ue-2" value="- _orders: BindingList&amp;lt;Order&amp;gt;" style="text;strokeColor=none;fillColor=none;align=left;verticalAlign=top;spacingLeft=4;spacingRight=4;overflow=hidden;rotatable=0;points=[[0,0.5],[1,0.5]];portConstraint=eastwest;whiteSpace=wrap;html=1;" parent="EkHCMVU59h59knE90Hll-18" vertex="1">
          <mxGeometry y="130" width="240" height="26" as="geometry" />
        </mxCell>
        <mxCell id="EkHCMVU59h59knE90Hll-20" value="" style="line;strokeWidth=1;fillColor=none;align=left;verticalAlign=middle;spacingTop=-1;spacingLeft=3;spacingRight=3;rotatable=0;labelPosition=right;points=[];portConstraint=eastwest;strokeColor=inherit;" parent="EkHCMVU59h59knE90Hll-18" vertex="1">
          <mxGeometry y="156" width="240" height="20" as="geometry" />
        </mxCell>
        <mxCell id="EkHCMVU59h59knE90Hll-21" value="+ Fullname {get;set;}: string" style="text;strokeColor=none;fillColor=none;align=left;verticalAlign=top;spacingLeft=4;spacingRight=4;overflow=hidden;rotatable=0;points=[[0,0.5],[1,0.5]];portConstraint=eastwest;whiteSpace=wrap;html=1;" parent="EkHCMVU59h59knE90Hll-18" vertex="1">
          <mxGeometry y="176" width="240" height="26" as="geometry" />
        </mxCell>
        <mxCell id="EkHCMVU59h59knE90Hll-25" value="+ Address {get;set}: Address" style="text;strokeColor=none;fillColor=none;align=left;verticalAlign=top;spacingLeft=4;spacingRight=4;overflow=hidden;rotatable=0;points=[[0,0.5],[1,0.5]];portConstraint=eastwest;whiteSpace=wrap;html=1;" parent="EkHCMVU59h59knE90Hll-18" vertex="1">
          <mxGeometry y="202" width="240" height="26" as="geometry" />
        </mxCell>
        <mxCell id="-F8Q1V_g5fa-UAAVx8Ue-1" value="+ OrderList {get;set;}: BindingList&amp;lt;Order&amp;gt;" style="text;strokeColor=none;fillColor=none;align=left;verticalAlign=top;spacingLeft=4;spacingRight=4;overflow=hidden;rotatable=0;points=[[0,0.5],[1,0.5]];portConstraint=eastwest;whiteSpace=wrap;html=1;" parent="EkHCMVU59h59knE90Hll-18" vertex="1">
          <mxGeometry y="228" width="240" height="22" as="geometry" />
        </mxCell>
        <mxCell id="EkHCMVU59h59knE90Hll-26" value="+ AllItemsCount {get;private set;}: int" style="text;strokeColor=none;fillColor=none;align=left;verticalAlign=top;spacingLeft=4;spacingRight=4;overflow=hidden;rotatable=0;points=[[0,0.5],[1,0.5]];portConstraint=eastwest;whiteSpace=wrap;html=1;" parent="EkHCMVU59h59knE90Hll-18" vertex="1">
          <mxGeometry y="250" width="240" height="26" as="geometry" />
        </mxCell>
        <mxCell id="EkHCMVU59h59knE90Hll-27" value="+ Id {get;private set:} int" style="text;strokeColor=none;fillColor=none;align=left;verticalAlign=top;spacingLeft=4;spacingRight=4;overflow=hidden;rotatable=0;points=[[0,0.5],[1,0.5]];portConstraint=eastwest;whiteSpace=wrap;html=1;" parent="EkHCMVU59h59knE90Hll-18" vertex="1">
          <mxGeometry y="276" width="240" height="26" as="geometry" />
        </mxCell>
        <mxCell id="MhgVoDi9bUxvAhyQU6as-1" value="+ IsPriority {get;set;}: bool" style="text;strokeColor=none;fillColor=none;align=left;verticalAlign=top;spacingLeft=4;spacingRight=4;overflow=hidden;rotatable=0;points=[[0,0.5],[1,0.5]];portConstraint=eastwest;whiteSpace=wrap;html=1;" parent="EkHCMVU59h59knE90Hll-18" vertex="1">
          <mxGeometry y="302" width="240" height="26" as="geometry" />
        </mxCell>
        <mxCell id="MM8psumMlT4RhVUM4Cc8-19" value="+&amp;nbsp;Discounts {get;set;}:&amp;nbsp;BindingList&amp;lt;IDiscount&amp;gt;" style="text;strokeColor=none;fillColor=none;align=left;verticalAlign=top;spacingLeft=4;spacingRight=4;overflow=hidden;rotatable=0;points=[[0,0.5],[1,0.5]];portConstraint=eastwest;whiteSpace=wrap;html=1;" parent="EkHCMVU59h59knE90Hll-18" vertex="1">
          <mxGeometry y="328" width="240" height="38" as="geometry" />
        </mxCell>
        <mxCell id="sbkK2AnOCJ7gOjGIv6pn-32" value="+ Customer (): void" style="text;strokeColor=none;fillColor=none;align=left;verticalAlign=top;spacingLeft=4;spacingRight=4;overflow=hidden;rotatable=0;points=[[0,0.5],[1,0.5]];portConstraint=eastwest;whiteSpace=wrap;html=1;" parent="EkHCMVU59h59knE90Hll-18" vertex="1">
          <mxGeometry y="366" width="240" height="26" as="geometry" />
        </mxCell>
        <mxCell id="sbkK2AnOCJ7gOjGIv6pn-33" value="+ Customer (string, int, string, string, string, string, string): void" style="text;strokeColor=none;fillColor=none;align=left;verticalAlign=top;spacingLeft=4;spacingRight=4;overflow=hidden;rotatable=0;points=[[0,0.5],[1,0.5]];portConstraint=eastwest;whiteSpace=wrap;html=1;" parent="EkHCMVU59h59knE90Hll-18" vertex="1">
          <mxGeometry y="392" width="240" height="38" as="geometry" />
        </mxCell>
        <mxCell id="phYLgja38qa1CTjOd_SN-2" value="+ ToString(): string" style="text;strokeColor=none;fillColor=none;align=left;verticalAlign=top;spacingLeft=4;spacingRight=4;overflow=hidden;rotatable=0;points=[[0,0.5],[1,0.5]];portConstraint=eastwest;whiteSpace=wrap;html=1;" parent="EkHCMVU59h59knE90Hll-18" vertex="1">
          <mxGeometry y="430" width="240" height="26" as="geometry" />
        </mxCell>
        <mxCell id="phYLgja38qa1CTjOd_SN-3" value="+ Clone(): object" style="text;strokeColor=none;fillColor=none;align=left;verticalAlign=top;spacingLeft=4;spacingRight=4;overflow=hidden;rotatable=0;points=[[0,0.5],[1,0.5]];portConstraint=eastwest;whiteSpace=wrap;html=1;" parent="EkHCMVU59h59knE90Hll-18" vertex="1">
          <mxGeometry y="456" width="240" height="26" as="geometry" />
        </mxCell>
        <mxCell id="hicgtg7otHuUIutlruOk-7" value="Address" style="swimlane;fontStyle=1;align=center;verticalAlign=top;childLayout=stackLayout;horizontal=1;startSize=26;horizontalStack=0;resizeParent=1;resizeParentMax=0;resizeLast=0;collapsible=1;marginBottom=0;whiteSpace=wrap;html=1;" parent="1" vertex="1">
          <mxGeometry x="-220" y="260" width="190" height="522" as="geometry" />
        </mxCell>
        <mxCell id="hicgtg7otHuUIutlruOk-15" value="- _index: int" style="text;strokeColor=none;fillColor=none;align=left;verticalAlign=top;spacingLeft=4;spacingRight=4;overflow=hidden;rotatable=0;points=[[0,0.5],[1,0.5]];portConstraint=eastwest;whiteSpace=wrap;html=1;" parent="hicgtg7otHuUIutlruOk-7" vertex="1">
          <mxGeometry y="26" width="190" height="26" as="geometry" />
        </mxCell>
        <mxCell id="hicgtg7otHuUIutlruOk-14" value="- _country: string" style="text;strokeColor=none;fillColor=none;align=left;verticalAlign=top;spacingLeft=4;spacingRight=4;overflow=hidden;rotatable=0;points=[[0,0.5],[1,0.5]];portConstraint=eastwest;whiteSpace=wrap;html=1;" parent="hicgtg7otHuUIutlruOk-7" vertex="1">
          <mxGeometry y="52" width="190" height="26" as="geometry" />
        </mxCell>
        <mxCell id="hicgtg7otHuUIutlruOk-13" value="- _city: string" style="text;strokeColor=none;fillColor=none;align=left;verticalAlign=top;spacingLeft=4;spacingRight=4;overflow=hidden;rotatable=0;points=[[0,0.5],[1,0.5]];portConstraint=eastwest;whiteSpace=wrap;html=1;" parent="hicgtg7otHuUIutlruOk-7" vertex="1">
          <mxGeometry y="78" width="190" height="26" as="geometry" />
        </mxCell>
        <mxCell id="hicgtg7otHuUIutlruOk-12" value="- _street: string" style="text;strokeColor=none;fillColor=none;align=left;verticalAlign=top;spacingLeft=4;spacingRight=4;overflow=hidden;rotatable=0;points=[[0,0.5],[1,0.5]];portConstraint=eastwest;whiteSpace=wrap;html=1;" parent="hicgtg7otHuUIutlruOk-7" vertex="1">
          <mxGeometry y="104" width="190" height="26" as="geometry" />
        </mxCell>
        <mxCell id="hicgtg7otHuUIutlruOk-11" value="- _building: string" style="text;strokeColor=none;fillColor=none;align=left;verticalAlign=top;spacingLeft=4;spacingRight=4;overflow=hidden;rotatable=0;points=[[0,0.5],[1,0.5]];portConstraint=eastwest;whiteSpace=wrap;html=1;" parent="hicgtg7otHuUIutlruOk-7" vertex="1">
          <mxGeometry y="130" width="190" height="26" as="geometry" />
        </mxCell>
        <mxCell id="hicgtg7otHuUIutlruOk-8" value="- _apartment: string" style="text;strokeColor=none;fillColor=none;align=left;verticalAlign=top;spacingLeft=4;spacingRight=4;overflow=hidden;rotatable=0;points=[[0,0.5],[1,0.5]];portConstraint=eastwest;whiteSpace=wrap;html=1;" parent="hicgtg7otHuUIutlruOk-7" vertex="1">
          <mxGeometry y="156" width="190" height="26" as="geometry" />
        </mxCell>
        <mxCell id="hicgtg7otHuUIutlruOk-9" value="" style="line;strokeWidth=1;fillColor=none;align=left;verticalAlign=middle;spacingTop=-1;spacingLeft=3;spacingRight=3;rotatable=0;labelPosition=right;points=[];portConstraint=eastwest;strokeColor=inherit;" parent="hicgtg7otHuUIutlruOk-7" vertex="1">
          <mxGeometry y="182" width="190" height="8" as="geometry" />
        </mxCell>
        <mxCell id="hicgtg7otHuUIutlruOk-10" value="+ Index {get;set;}: int" style="text;strokeColor=none;fillColor=none;align=left;verticalAlign=top;spacingLeft=4;spacingRight=4;overflow=hidden;rotatable=0;points=[[0,0.5],[1,0.5]];portConstraint=eastwest;whiteSpace=wrap;html=1;" parent="hicgtg7otHuUIutlruOk-7" vertex="1">
          <mxGeometry y="190" width="190" height="26" as="geometry" />
        </mxCell>
        <mxCell id="hicgtg7otHuUIutlruOk-16" value="+ Country {get;set;}: string" style="text;strokeColor=none;fillColor=none;align=left;verticalAlign=top;spacingLeft=4;spacingRight=4;overflow=hidden;rotatable=0;points=[[0,0.5],[1,0.5]];portConstraint=eastwest;whiteSpace=wrap;html=1;" parent="hicgtg7otHuUIutlruOk-7" vertex="1">
          <mxGeometry y="216" width="190" height="26" as="geometry" />
        </mxCell>
        <mxCell id="hicgtg7otHuUIutlruOk-17" value="+ City {get;set;}: string" style="text;strokeColor=none;fillColor=none;align=left;verticalAlign=top;spacingLeft=4;spacingRight=4;overflow=hidden;rotatable=0;points=[[0,0.5],[1,0.5]];portConstraint=eastwest;whiteSpace=wrap;html=1;" parent="hicgtg7otHuUIutlruOk-7" vertex="1">
          <mxGeometry y="242" width="190" height="26" as="geometry" />
        </mxCell>
        <mxCell id="hicgtg7otHuUIutlruOk-18" value="+ Street {get;set;}: string" style="text;strokeColor=none;fillColor=none;align=left;verticalAlign=top;spacingLeft=4;spacingRight=4;overflow=hidden;rotatable=0;points=[[0,0.5],[1,0.5]];portConstraint=eastwest;whiteSpace=wrap;html=1;" parent="hicgtg7otHuUIutlruOk-7" vertex="1">
          <mxGeometry y="268" width="190" height="26" as="geometry" />
        </mxCell>
        <mxCell id="hicgtg7otHuUIutlruOk-19" value="+ Building {get;set;}: string" style="text;strokeColor=none;fillColor=none;align=left;verticalAlign=top;spacingLeft=4;spacingRight=4;overflow=hidden;rotatable=0;points=[[0,0.5],[1,0.5]];portConstraint=eastwest;whiteSpace=wrap;html=1;" parent="hicgtg7otHuUIutlruOk-7" vertex="1">
          <mxGeometry y="294" width="190" height="26" as="geometry" />
        </mxCell>
        <mxCell id="hicgtg7otHuUIutlruOk-20" value="+ Apartment {get;set;}: string" style="text;strokeColor=none;fillColor=none;align=left;verticalAlign=top;spacingLeft=4;spacingRight=4;overflow=hidden;rotatable=0;points=[[0,0.5],[1,0.5]];portConstraint=eastwest;whiteSpace=wrap;html=1;" parent="hicgtg7otHuUIutlruOk-7" vertex="1">
          <mxGeometry y="320" width="190" height="26" as="geometry" />
        </mxCell>
        <mxCell id="sbkK2AnOCJ7gOjGIv6pn-30" value="+ Address (): void" style="text;strokeColor=none;fillColor=none;align=left;verticalAlign=top;spacingLeft=4;spacingRight=4;overflow=hidden;rotatable=0;points=[[0,0.5],[1,0.5]];portConstraint=eastwest;whiteSpace=wrap;html=1;" parent="hicgtg7otHuUIutlruOk-7" vertex="1">
          <mxGeometry y="346" width="190" height="26" as="geometry" />
        </mxCell>
        <mxCell id="sbkK2AnOCJ7gOjGIv6pn-31" value="+ Address (int, string, string, string, string, string): void" style="text;strokeColor=none;fillColor=none;align=left;verticalAlign=top;spacingLeft=4;spacingRight=4;overflow=hidden;rotatable=0;points=[[0,0.5],[1,0.5]];portConstraint=eastwest;whiteSpace=wrap;html=1;" parent="hicgtg7otHuUIutlruOk-7" vertex="1">
          <mxGeometry y="372" width="190" height="38" as="geometry" />
        </mxCell>
        <mxCell id="phYLgja38qa1CTjOd_SN-1" value="+ ToString(): string" style="text;strokeColor=none;fillColor=none;align=left;verticalAlign=top;spacingLeft=4;spacingRight=4;overflow=hidden;rotatable=0;points=[[0,0.5],[1,0.5]];portConstraint=eastwest;whiteSpace=wrap;html=1;" parent="hicgtg7otHuUIutlruOk-7" vertex="1">
          <mxGeometry y="410" width="190" height="28" as="geometry" />
        </mxCell>
        <mxCell id="AatP9Vk5JP6GM1xrLjcz-4" value="+ Clone(): object" style="text;strokeColor=none;fillColor=none;align=left;verticalAlign=top;spacingLeft=4;spacingRight=4;overflow=hidden;rotatable=0;points=[[0,0.5],[1,0.5]];portConstraint=eastwest;whiteSpace=wrap;html=1;" parent="hicgtg7otHuUIutlruOk-7" vertex="1">
          <mxGeometry y="438" width="190" height="28" as="geometry" />
        </mxCell>
        <mxCell id="AatP9Vk5JP6GM1xrLjcz-5" value="+ Equals(Address): bool" style="text;strokeColor=none;fillColor=none;align=left;verticalAlign=top;spacingLeft=4;spacingRight=4;overflow=hidden;rotatable=0;points=[[0,0.5],[1,0.5]];portConstraint=eastwest;whiteSpace=wrap;html=1;" parent="hicgtg7otHuUIutlruOk-7" vertex="1">
          <mxGeometry y="466" width="190" height="28" as="geometry" />
        </mxCell>
        <mxCell id="AatP9Vk5JP6GM1xrLjcz-6" value="+ Equals(Address): override bool" style="text;strokeColor=none;fillColor=none;align=left;verticalAlign=top;spacingLeft=4;spacingRight=4;overflow=hidden;rotatable=0;points=[[0,0.5],[1,0.5]];portConstraint=eastwest;whiteSpace=wrap;html=1;" parent="hicgtg7otHuUIutlruOk-7" vertex="1">
          <mxGeometry y="494" width="190" height="28" as="geometry" />
        </mxCell>
        <mxCell id="hicgtg7otHuUIutlruOk-21" value="1" style="endArrow=open;html=1;endSize=12;startArrow=diamondThin;startSize=14;startFill=1;edgeStyle=orthogonalEdgeStyle;align=right;verticalAlign=top;rounded=0;entryX=0.995;entryY=0.517;entryDx=0;entryDy=0;entryPerimeter=0;exitX=0;exitY=0.5;exitDx=0;exitDy=0;exitPerimeter=0;" parent="1" source="EkHCMVU59h59knE90Hll-20" target="hicgtg7otHuUIutlruOk-9" edge="1">
          <mxGeometry x="-1" y="3" relative="1" as="geometry">
            <mxPoint x="30" y="440" as="sourcePoint" />
            <mxPoint x="-20" y="440" as="targetPoint" />
          </mxGeometry>
        </mxCell>
        <mxCell id="hicgtg7otHuUIutlruOk-22" value="&lt;font style=&quot;font-size: 14px;&quot;&gt;1&lt;/font&gt;" style="text;html=1;align=center;verticalAlign=middle;resizable=0;points=[];autosize=1;strokeColor=none;fillColor=none;" parent="1" vertex="1">
          <mxGeometry x="-40" y="440" width="30" height="30" as="geometry" />
        </mxCell>
        <mxCell id="sbkK2AnOCJ7gOjGIv6pn-1" value="Store" style="swimlane;fontStyle=1;align=center;verticalAlign=top;childLayout=stackLayout;horizontal=1;startSize=26;horizontalStack=0;resizeParent=1;resizeParentMax=0;resizeLast=0;collapsible=1;marginBottom=0;whiteSpace=wrap;html=1;" parent="1" vertex="1">
          <mxGeometry x="290" y="710" width="230" height="138" as="geometry" />
        </mxCell>
        <mxCell id="sbkK2AnOCJ7gOjGIv6pn-5" value="- _items: List&amp;lt;Item&amp;gt;" style="text;strokeColor=none;fillColor=none;align=left;verticalAlign=top;spacingLeft=4;spacingRight=4;overflow=hidden;rotatable=0;points=[[0,0.5],[1,0.5]];portConstraint=eastwest;whiteSpace=wrap;html=1;" parent="sbkK2AnOCJ7gOjGIv6pn-1" vertex="1">
          <mxGeometry y="26" width="230" height="26" as="geometry" />
        </mxCell>
        <mxCell id="sbkK2AnOCJ7gOjGIv6pn-2" value="- _customers: List&amp;lt;Customer&amp;gt;" style="text;strokeColor=none;fillColor=none;align=left;verticalAlign=top;spacingLeft=4;spacingRight=4;overflow=hidden;rotatable=0;points=[[0,0.5],[1,0.5]];portConstraint=eastwest;whiteSpace=wrap;html=1;" parent="sbkK2AnOCJ7gOjGIv6pn-1" vertex="1">
          <mxGeometry y="52" width="230" height="26" as="geometry" />
        </mxCell>
        <mxCell id="sbkK2AnOCJ7gOjGIv6pn-3" value="" style="line;strokeWidth=1;fillColor=none;align=left;verticalAlign=middle;spacingTop=-1;spacingLeft=3;spacingRight=3;rotatable=0;labelPosition=right;points=[];portConstraint=eastwest;strokeColor=inherit;" parent="sbkK2AnOCJ7gOjGIv6pn-1" vertex="1">
          <mxGeometry y="78" width="230" height="8" as="geometry" />
        </mxCell>
        <mxCell id="sbkK2AnOCJ7gOjGIv6pn-4" value="+ Items {get;set;}: List&amp;lt;Item&amp;gt;" style="text;strokeColor=none;fillColor=none;align=left;verticalAlign=top;spacingLeft=4;spacingRight=4;overflow=hidden;rotatable=0;points=[[0,0.5],[1,0.5]];portConstraint=eastwest;whiteSpace=wrap;html=1;" parent="sbkK2AnOCJ7gOjGIv6pn-1" vertex="1">
          <mxGeometry y="86" width="230" height="26" as="geometry" />
        </mxCell>
        <mxCell id="sbkK2AnOCJ7gOjGIv6pn-6" value="+ Customers {get;set;}: List&amp;lt;Customer&amp;gt;" style="text;strokeColor=none;fillColor=none;align=left;verticalAlign=top;spacingLeft=4;spacingRight=4;overflow=hidden;rotatable=0;points=[[0,0.5],[1,0.5]];portConstraint=eastwest;whiteSpace=wrap;html=1;" parent="sbkK2AnOCJ7gOjGIv6pn-1" vertex="1">
          <mxGeometry y="112" width="230" height="26" as="geometry" />
        </mxCell>
        <mxCell id="sbkK2AnOCJ7gOjGIv6pn-9" value="" style="endArrow=diamondThin;endFill=1;endSize=24;html=1;rounded=0;entryX=1.001;entryY=0.139;entryDx=0;entryDy=0;entryPerimeter=0;exitX=0.504;exitY=0.989;exitDx=0;exitDy=0;exitPerimeter=0;" parent="1" source="AatP9Vk5JP6GM1xrLjcz-9" target="sbkK2AnOCJ7gOjGIv6pn-4" edge="1">
          <mxGeometry width="160" relative="1" as="geometry">
            <mxPoint x="660" y="790" as="sourcePoint" />
            <mxPoint x="540" y="793.93" as="targetPoint" />
            <Array as="points">
              <mxPoint x="646" y="800" />
            </Array>
          </mxGeometry>
        </mxCell>
        <mxCell id="sbkK2AnOCJ7gOjGIv6pn-10" value="" style="endArrow=classic;html=1;rounded=0;entryX=0.504;entryY=0.989;entryDx=0;entryDy=0;entryPerimeter=0;" parent="1" target="AatP9Vk5JP6GM1xrLjcz-9" edge="1">
          <mxGeometry width="50" height="50" relative="1" as="geometry">
            <mxPoint x="646" y="800" as="sourcePoint" />
            <mxPoint x="670" y="727" as="targetPoint" />
          </mxGeometry>
        </mxCell>
        <mxCell id="sbkK2AnOCJ7gOjGIv6pn-12" value="&lt;font style=&quot;font-size: 20px;&quot;&gt;*&lt;/font&gt;" style="text;html=1;align=center;verticalAlign=middle;resizable=0;points=[];autosize=1;strokeColor=none;fillColor=none;" parent="1" vertex="1">
          <mxGeometry x="640" y="782" width="30" height="40" as="geometry" />
        </mxCell>
        <mxCell id="sbkK2AnOCJ7gOjGIv6pn-13" value="&lt;font style=&quot;font-size: 14px;&quot;&gt;1&lt;/font&gt;" style="text;html=1;align=center;verticalAlign=middle;resizable=0;points=[];autosize=1;strokeColor=none;fillColor=none;" parent="1" vertex="1">
          <mxGeometry x="520" y="800" width="30" height="30" as="geometry" />
        </mxCell>
        <mxCell id="sbkK2AnOCJ7gOjGIv6pn-14" value="" style="endArrow=diamondThin;endFill=1;endSize=24;html=1;rounded=0;entryX=0.001;entryY=0.142;entryDx=0;entryDy=0;entryPerimeter=0;exitX=0.5;exitY=1;exitDx=0;exitDy=0;" parent="1" source="EkHCMVU59h59knE90Hll-18" target="sbkK2AnOCJ7gOjGIv6pn-4" edge="1">
          <mxGeometry width="160" relative="1" as="geometry">
            <mxPoint x="160" y="730" as="sourcePoint" />
            <mxPoint x="270" y="794" as="targetPoint" />
            <Array as="points">
              <mxPoint x="160" y="800" />
            </Array>
          </mxGeometry>
        </mxCell>
        <mxCell id="sbkK2AnOCJ7gOjGIv6pn-15" value="&lt;font style=&quot;font-size: 14px;&quot;&gt;1&lt;/font&gt;" style="text;html=1;align=center;verticalAlign=middle;resizable=0;points=[];autosize=1;strokeColor=none;fillColor=none;" parent="1" vertex="1">
          <mxGeometry x="260" y="764" width="30" height="30" as="geometry" />
        </mxCell>
        <mxCell id="sbkK2AnOCJ7gOjGIv6pn-16" value="&lt;font style=&quot;font-size: 20px;&quot;&gt;*&lt;/font&gt;" style="text;html=1;align=center;verticalAlign=middle;resizable=0;points=[];autosize=1;strokeColor=none;fillColor=none;" parent="1" vertex="1">
          <mxGeometry x="160" y="754" width="30" height="40" as="geometry" />
        </mxCell>
        <mxCell id="sbkK2AnOCJ7gOjGIv6pn-17" value="" style="endArrow=classic;html=1;rounded=0;entryX=0.5;entryY=1.001;entryDx=0;entryDy=0;entryPerimeter=0;" parent="1" target="phYLgja38qa1CTjOd_SN-3" edge="1">
          <mxGeometry width="50" height="50" relative="1" as="geometry">
            <mxPoint x="160" y="800" as="sourcePoint" />
            <mxPoint x="160" y="770" as="targetPoint" />
          </mxGeometry>
        </mxCell>
        <mxCell id="sbkK2AnOCJ7gOjGIv6pn-18" value="«enumeration»&lt;br&gt;Category" style="swimlane;fontStyle=0;childLayout=stackLayout;horizontal=1;startSize=40;fillColor=none;horizontalStack=0;resizeParent=1;resizeParentMax=0;resizeLast=0;collapsible=1;marginBottom=0;whiteSpace=wrap;html=1;" parent="1" vertex="1">
          <mxGeometry x="827" y="316" width="140" height="222" as="geometry">
            <mxRectangle x="800" y="350" width="120" height="40" as="alternateBounds" />
          </mxGeometry>
        </mxCell>
        <mxCell id="sbkK2AnOCJ7gOjGIv6pn-19" value="PCcomponents" style="text;strokeColor=none;fillColor=none;align=left;verticalAlign=top;spacingLeft=4;spacingRight=4;overflow=hidden;rotatable=0;points=[[0,0.5],[1,0.5]];portConstraint=eastwest;whiteSpace=wrap;html=1;" parent="sbkK2AnOCJ7gOjGIv6pn-18" vertex="1">
          <mxGeometry y="40" width="140" height="26" as="geometry" />
        </mxCell>
        <mxCell id="sbkK2AnOCJ7gOjGIv6pn-20" value="Phones" style="text;strokeColor=none;fillColor=none;align=left;verticalAlign=top;spacingLeft=4;spacingRight=4;overflow=hidden;rotatable=0;points=[[0,0.5],[1,0.5]];portConstraint=eastwest;whiteSpace=wrap;html=1;" parent="sbkK2AnOCJ7gOjGIv6pn-18" vertex="1">
          <mxGeometry y="66" width="140" height="26" as="geometry" />
        </mxCell>
        <mxCell id="sbkK2AnOCJ7gOjGIv6pn-21" value="DomesticAppliances" style="text;strokeColor=none;fillColor=none;align=left;verticalAlign=top;spacingLeft=4;spacingRight=4;overflow=hidden;rotatable=0;points=[[0,0.5],[1,0.5]];portConstraint=eastwest;whiteSpace=wrap;html=1;" parent="sbkK2AnOCJ7gOjGIv6pn-18" vertex="1">
          <mxGeometry y="92" width="140" height="26" as="geometry" />
        </mxCell>
        <mxCell id="sbkK2AnOCJ7gOjGIv6pn-22" value="Building" style="text;strokeColor=none;fillColor=none;align=left;verticalAlign=top;spacingLeft=4;spacingRight=4;overflow=hidden;rotatable=0;points=[[0,0.5],[1,0.5]];portConstraint=eastwest;whiteSpace=wrap;html=1;" parent="sbkK2AnOCJ7gOjGIv6pn-18" vertex="1">
          <mxGeometry y="118" width="140" height="26" as="geometry" />
        </mxCell>
        <mxCell id="sbkK2AnOCJ7gOjGIv6pn-23" value="Furniture" style="text;strokeColor=none;fillColor=none;align=left;verticalAlign=top;spacingLeft=4;spacingRight=4;overflow=hidden;rotatable=0;points=[[0,0.5],[1,0.5]];portConstraint=eastwest;whiteSpace=wrap;html=1;" parent="sbkK2AnOCJ7gOjGIv6pn-18" vertex="1">
          <mxGeometry y="144" width="140" height="26" as="geometry" />
        </mxCell>
        <mxCell id="sbkK2AnOCJ7gOjGIv6pn-24" value="Entertainments" style="text;strokeColor=none;fillColor=none;align=left;verticalAlign=top;spacingLeft=4;spacingRight=4;overflow=hidden;rotatable=0;points=[[0,0.5],[1,0.5]];portConstraint=eastwest;whiteSpace=wrap;html=1;" parent="sbkK2AnOCJ7gOjGIv6pn-18" vertex="1">
          <mxGeometry y="170" width="140" height="26" as="geometry" />
        </mxCell>
        <mxCell id="sbkK2AnOCJ7gOjGIv6pn-25" value="CarGoods" style="text;strokeColor=none;fillColor=none;align=left;verticalAlign=top;spacingLeft=4;spacingRight=4;overflow=hidden;rotatable=0;points=[[0,0.5],[1,0.5]];portConstraint=eastwest;whiteSpace=wrap;html=1;" parent="sbkK2AnOCJ7gOjGIv6pn-18" vertex="1">
          <mxGeometry y="196" width="140" height="26" as="geometry" />
        </mxCell>
        <mxCell id="sbkK2AnOCJ7gOjGIv6pn-26" value="Use" style="endArrow=open;endSize=12;dashed=1;html=1;rounded=0;entryX=0.5;entryY=0;entryDx=0;entryDy=0;exitX=0.003;exitY=0.206;exitDx=0;exitDy=0;exitPerimeter=0;" parent="1" source="EkHCMVU59h59knE90Hll-35" target="hicgtg7otHuUIutlruOk-7" edge="1">
          <mxGeometry width="160" relative="1" as="geometry">
            <mxPoint x="180" y="160" as="sourcePoint" />
            <mxPoint x="-120" y="240" as="targetPoint" />
            <Array as="points">
              <mxPoint x="-125" y="160" />
            </Array>
          </mxGeometry>
        </mxCell>
        <mxCell id="sbkK2AnOCJ7gOjGIv6pn-27" value="Use" style="endArrow=open;endSize=12;dashed=1;html=1;rounded=0;entryX=0.5;entryY=0;entryDx=0;entryDy=0;exitX=0;exitY=0.5;exitDx=0;exitDy=0;" parent="1" target="EkHCMVU59h59knE90Hll-18" edge="1" source="EkHCMVU59h59knE90Hll-36">
          <mxGeometry width="160" relative="1" as="geometry">
            <mxPoint x="210" y="193" as="sourcePoint" />
            <mxPoint x="160" y="287" as="targetPoint" />
            <Array as="points">
              <mxPoint x="160" y="193" />
            </Array>
          </mxGeometry>
        </mxCell>
        <mxCell id="sbkK2AnOCJ7gOjGIv6pn-28" value="Use" style="endArrow=open;endSize=12;dashed=1;html=1;rounded=0;entryX=0.5;entryY=0;entryDx=0;entryDy=0;exitX=1.002;exitY=0.233;exitDx=0;exitDy=0;exitPerimeter=0;" parent="1" source="EkHCMVU59h59knE90Hll-36" target="EkHCMVU59h59knE90Hll-3" edge="1">
          <mxGeometry width="160" relative="1" as="geometry">
            <mxPoint x="570" y="187" as="sourcePoint" />
            <mxPoint x="640" y="254" as="targetPoint" />
            <Array as="points">
              <mxPoint x="645" y="186" />
            </Array>
          </mxGeometry>
        </mxCell>
        <mxCell id="sbkK2AnOCJ7gOjGIv6pn-29" value="Use" style="endArrow=open;endSize=12;dashed=1;html=1;rounded=0;entryX=-0.005;entryY=0.205;entryDx=0;entryDy=0;entryPerimeter=0;exitX=1.002;exitY=0.292;exitDx=0;exitDy=0;exitPerimeter=0;" parent="1" source="EkHCMVU59h59knE90Hll-5" target="sbkK2AnOCJ7gOjGIv6pn-22" edge="1">
          <mxGeometry width="160" relative="1" as="geometry">
            <mxPoint x="760" y="439.64" as="sourcePoint" />
            <mxPoint x="810" y="439.64" as="targetPoint" />
          </mxGeometry>
        </mxCell>
        <mxCell id="lVDe1UibVYgoFe94r_Ij-1" value="Cart" style="swimlane;fontStyle=1;align=center;verticalAlign=top;childLayout=stackLayout;horizontal=1;startSize=26;horizontalStack=0;resizeParent=1;resizeParentMax=0;resizeLast=0;collapsible=1;marginBottom=0;whiteSpace=wrap;html=1;" parent="1" vertex="1">
          <mxGeometry x="-210" y="830" width="180" height="138" as="geometry" />
        </mxCell>
        <mxCell id="lVDe1UibVYgoFe94r_Ij-5" value="- _items: List&amp;lt;Item&amp;gt;" style="text;strokeColor=none;fillColor=none;align=left;verticalAlign=top;spacingLeft=4;spacingRight=4;overflow=hidden;rotatable=0;points=[[0,0.5],[1,0.5]];portConstraint=eastwest;whiteSpace=wrap;html=1;" parent="lVDe1UibVYgoFe94r_Ij-1" vertex="1">
          <mxGeometry y="26" width="180" height="26" as="geometry" />
        </mxCell>
        <mxCell id="lVDe1UibVYgoFe94r_Ij-2" value="- _amount: int" style="text;strokeColor=none;fillColor=none;align=left;verticalAlign=top;spacingLeft=4;spacingRight=4;overflow=hidden;rotatable=0;points=[[0,0.5],[1,0.5]];portConstraint=eastwest;whiteSpace=wrap;html=1;" parent="lVDe1UibVYgoFe94r_Ij-1" vertex="1">
          <mxGeometry y="52" width="180" height="26" as="geometry" />
        </mxCell>
        <mxCell id="lVDe1UibVYgoFe94r_Ij-3" value="" style="line;strokeWidth=1;fillColor=none;align=left;verticalAlign=middle;spacingTop=-1;spacingLeft=3;spacingRight=3;rotatable=0;labelPosition=right;points=[];portConstraint=eastwest;strokeColor=inherit;" parent="lVDe1UibVYgoFe94r_Ij-1" vertex="1">
          <mxGeometry y="78" width="180" height="8" as="geometry" />
        </mxCell>
        <mxCell id="lVDe1UibVYgoFe94r_Ij-4" value="+ Items {get;set;}: List&amp;lt;Item&amp;gt;" style="text;strokeColor=none;fillColor=none;align=left;verticalAlign=top;spacingLeft=4;spacingRight=4;overflow=hidden;rotatable=0;points=[[0,0.5],[1,0.5]];portConstraint=eastwest;whiteSpace=wrap;html=1;" parent="lVDe1UibVYgoFe94r_Ij-1" vertex="1">
          <mxGeometry y="86" width="180" height="26" as="geometry" />
        </mxCell>
        <mxCell id="lVDe1UibVYgoFe94r_Ij-6" value="+ Amount {get;}: int" style="text;strokeColor=none;fillColor=none;align=left;verticalAlign=top;spacingLeft=4;spacingRight=4;overflow=hidden;rotatable=0;points=[[0,0.5],[1,0.5]];portConstraint=eastwest;whiteSpace=wrap;html=1;" parent="lVDe1UibVYgoFe94r_Ij-1" vertex="1">
          <mxGeometry y="112" width="180" height="26" as="geometry" />
        </mxCell>
        <mxCell id="lVDe1UibVYgoFe94r_Ij-7" value="Order" style="swimlane;fontStyle=1;align=center;verticalAlign=top;childLayout=stackLayout;horizontal=1;startSize=26;horizontalStack=0;resizeParent=1;resizeParentMax=0;resizeLast=0;collapsible=1;marginBottom=0;whiteSpace=wrap;html=1;" parent="1" vertex="1">
          <mxGeometry x="-520" y="252" width="240" height="554" as="geometry" />
        </mxCell>
        <mxCell id="lVDe1UibVYgoFe94r_Ij-11" value="- _id: int" style="text;strokeColor=none;fillColor=none;align=left;verticalAlign=top;spacingLeft=4;spacingRight=4;overflow=hidden;rotatable=0;points=[[0,0.5],[1,0.5]];portConstraint=eastwest;whiteSpace=wrap;html=1;" parent="lVDe1UibVYgoFe94r_Ij-7" vertex="1">
          <mxGeometry y="26" width="240" height="26" as="geometry" />
        </mxCell>
        <mxCell id="lVDe1UibVYgoFe94r_Ij-12" value="-&amp;nbsp;_allOrdersCount: int" style="text;strokeColor=none;fillColor=none;align=left;verticalAlign=top;spacingLeft=4;spacingRight=4;overflow=hidden;rotatable=0;points=[[0,0.5],[1,0.5]];portConstraint=eastwest;whiteSpace=wrap;html=1;fontStyle=4" parent="lVDe1UibVYgoFe94r_Ij-7" vertex="1">
          <mxGeometry y="52" width="240" height="26" as="geometry" />
        </mxCell>
        <mxCell id="lVDe1UibVYgoFe94r_Ij-13" value="- _items:&amp;nbsp;List&amp;lt;Item&amp;gt;" style="text;strokeColor=none;fillColor=none;align=left;verticalAlign=top;spacingLeft=4;spacingRight=4;overflow=hidden;rotatable=0;points=[[0,0.5],[1,0.5]];portConstraint=eastwest;whiteSpace=wrap;html=1;" parent="lVDe1UibVYgoFe94r_Ij-7" vertex="1">
          <mxGeometry y="78" width="240" height="26" as="geometry" />
        </mxCell>
        <mxCell id="lVDe1UibVYgoFe94r_Ij-14" value="-&amp;nbsp;_creationDate: string" style="text;strokeColor=none;fillColor=none;align=left;verticalAlign=top;spacingLeft=4;spacingRight=4;overflow=hidden;rotatable=0;points=[[0,0.5],[1,0.5]];portConstraint=eastwest;whiteSpace=wrap;html=1;" parent="lVDe1UibVYgoFe94r_Ij-7" vertex="1">
          <mxGeometry y="104" width="240" height="26" as="geometry" />
        </mxCell>
        <mxCell id="lVDe1UibVYgoFe94r_Ij-15" value="- _address: Address" style="text;strokeColor=none;fillColor=none;align=left;verticalAlign=top;spacingLeft=4;spacingRight=4;overflow=hidden;rotatable=0;points=[[0,0.5],[1,0.5]];portConstraint=eastwest;whiteSpace=wrap;html=1;" parent="lVDe1UibVYgoFe94r_Ij-7" vertex="1">
          <mxGeometry y="130" width="240" height="26" as="geometry" />
        </mxCell>
        <mxCell id="lVDe1UibVYgoFe94r_Ij-8" value="- _amount: int" style="text;strokeColor=none;fillColor=none;align=left;verticalAlign=top;spacingLeft=4;spacingRight=4;overflow=hidden;rotatable=0;points=[[0,0.5],[1,0.5]];portConstraint=eastwest;whiteSpace=wrap;html=1;" parent="lVDe1UibVYgoFe94r_Ij-7" vertex="1">
          <mxGeometry y="156" width="240" height="26" as="geometry" />
        </mxCell>
        <mxCell id="lVDe1UibVYgoFe94r_Ij-9" value="" style="line;strokeWidth=1;fillColor=none;align=left;verticalAlign=middle;spacingTop=-1;spacingLeft=3;spacingRight=3;rotatable=0;labelPosition=right;points=[];portConstraint=eastwest;strokeColor=inherit;" parent="lVDe1UibVYgoFe94r_Ij-7" vertex="1">
          <mxGeometry y="182" width="240" height="8" as="geometry" />
        </mxCell>
        <mxCell id="lVDe1UibVYgoFe94r_Ij-10" value="+&amp;nbsp;AllOrdersCount {get;private set;}: int" style="text;strokeColor=none;fillColor=none;align=left;verticalAlign=top;spacingLeft=4;spacingRight=4;overflow=hidden;rotatable=0;points=[[0,0.5],[1,0.5]];portConstraint=eastwest;whiteSpace=wrap;html=1;" parent="lVDe1UibVYgoFe94r_Ij-7" vertex="1">
          <mxGeometry y="190" width="240" height="26" as="geometry" />
        </mxCell>
        <mxCell id="lVDe1UibVYgoFe94r_Ij-16" value="+ Id {get;private set;}: int" style="text;strokeColor=none;fillColor=none;align=left;verticalAlign=top;spacingLeft=4;spacingRight=4;overflow=hidden;rotatable=0;points=[[0,0.5],[1,0.5]];portConstraint=eastwest;whiteSpace=wrap;html=1;" parent="lVDe1UibVYgoFe94r_Ij-7" vertex="1">
          <mxGeometry y="216" width="240" height="26" as="geometry" />
        </mxCell>
        <mxCell id="lVDe1UibVYgoFe94r_Ij-17" value="+ Items {get;set;}:&amp;nbsp;List&amp;lt;Item&amp;gt;" style="text;strokeColor=none;fillColor=none;align=left;verticalAlign=top;spacingLeft=4;spacingRight=4;overflow=hidden;rotatable=0;points=[[0,0.5],[1,0.5]];portConstraint=eastwest;whiteSpace=wrap;html=1;" parent="lVDe1UibVYgoFe94r_Ij-7" vertex="1">
          <mxGeometry y="242" width="240" height="26" as="geometry" />
        </mxCell>
        <mxCell id="lVDe1UibVYgoFe94r_Ij-18" value="+ CreationDate {get;private set;}: string" style="text;strokeColor=none;fillColor=none;align=left;verticalAlign=top;spacingLeft=4;spacingRight=4;overflow=hidden;rotatable=0;points=[[0,0.5],[1,0.5]];portConstraint=eastwest;whiteSpace=wrap;html=1;" parent="lVDe1UibVYgoFe94r_Ij-7" vertex="1">
          <mxGeometry y="268" width="240" height="26" as="geometry" />
        </mxCell>
        <mxCell id="lVDe1UibVYgoFe94r_Ij-19" value="+ Address {get;set;}: Address" style="text;strokeColor=none;fillColor=none;align=left;verticalAlign=top;spacingLeft=4;spacingRight=4;overflow=hidden;rotatable=0;points=[[0,0.5],[1,0.5]];portConstraint=eastwest;whiteSpace=wrap;html=1;" parent="lVDe1UibVYgoFe94r_Ij-7" vertex="1">
          <mxGeometry y="294" width="240" height="26" as="geometry" />
        </mxCell>
        <mxCell id="lVDe1UibVYgoFe94r_Ij-20" value="+ Amount {get;}: int" style="text;strokeColor=none;fillColor=none;align=left;verticalAlign=top;spacingLeft=4;spacingRight=4;overflow=hidden;rotatable=0;points=[[0,0.5],[1,0.5]];portConstraint=eastwest;whiteSpace=wrap;html=1;" parent="lVDe1UibVYgoFe94r_Ij-7" vertex="1">
          <mxGeometry y="320" width="240" height="26" as="geometry" />
        </mxCell>
        <mxCell id="lVDe1UibVYgoFe94r_Ij-21" value="+ OrderStatus {get;set;}: OrderStatus" style="text;strokeColor=none;fillColor=none;align=left;verticalAlign=top;spacingLeft=4;spacingRight=4;overflow=hidden;rotatable=0;points=[[0,0.5],[1,0.5]];portConstraint=eastwest;whiteSpace=wrap;html=1;" parent="lVDe1UibVYgoFe94r_Ij-7" vertex="1">
          <mxGeometry y="346" width="240" height="26" as="geometry" />
        </mxCell>
        <mxCell id="MhgVoDi9bUxvAhyQU6as-3" value="+ IsPriority {get;set;}: bool" style="text;strokeColor=none;fillColor=none;align=left;verticalAlign=top;spacingLeft=4;spacingRight=4;overflow=hidden;rotatable=0;points=[[0,0.5],[1,0.5]];portConstraint=eastwest;whiteSpace=wrap;html=1;" parent="lVDe1UibVYgoFe94r_Ij-7" vertex="1">
          <mxGeometry y="372" width="240" height="26" as="geometry" />
        </mxCell>
        <mxCell id="MM8psumMlT4RhVUM4Cc8-20" value="+ DiscountAmount {get;set;}: int" style="text;strokeColor=none;fillColor=none;align=left;verticalAlign=top;spacingLeft=4;spacingRight=4;overflow=hidden;rotatable=0;points=[[0,0.5],[1,0.5]];portConstraint=eastwest;whiteSpace=wrap;html=1;" parent="lVDe1UibVYgoFe94r_Ij-7" vertex="1">
          <mxGeometry y="398" width="240" height="26" as="geometry" />
        </mxCell>
        <mxCell id="MM8psumMlT4RhVUM4Cc8-21" value="+ Total {get;private set;}: int" style="text;strokeColor=none;fillColor=none;align=left;verticalAlign=top;spacingLeft=4;spacingRight=4;overflow=hidden;rotatable=0;points=[[0,0.5],[1,0.5]];portConstraint=eastwest;whiteSpace=wrap;html=1;" parent="lVDe1UibVYgoFe94r_Ij-7" vertex="1">
          <mxGeometry y="424" width="240" height="26" as="geometry" />
        </mxCell>
        <mxCell id="lVDe1UibVYgoFe94r_Ij-22" value="+ Order: void" style="text;strokeColor=none;fillColor=none;align=left;verticalAlign=top;spacingLeft=4;spacingRight=4;overflow=hidden;rotatable=0;points=[[0,0.5],[1,0.5]];portConstraint=eastwest;whiteSpace=wrap;html=1;" parent="lVDe1UibVYgoFe94r_Ij-7" vertex="1">
          <mxGeometry y="450" width="240" height="26" as="geometry" />
        </mxCell>
        <mxCell id="lVDe1UibVYgoFe94r_Ij-23" value="+ Order (Address, Cart, OrderStatus): void" style="text;strokeColor=none;fillColor=none;align=left;verticalAlign=top;spacingLeft=4;spacingRight=4;overflow=hidden;rotatable=0;points=[[0,0.5],[1,0.5]];portConstraint=eastwest;whiteSpace=wrap;html=1;" parent="lVDe1UibVYgoFe94r_Ij-7" vertex="1">
          <mxGeometry y="476" width="240" height="26" as="geometry" />
        </mxCell>
        <mxCell id="AatP9Vk5JP6GM1xrLjcz-1" value="+ Equals(Order): bool" style="text;strokeColor=none;fillColor=none;align=left;verticalAlign=top;spacingLeft=4;spacingRight=4;overflow=hidden;rotatable=0;points=[[0,0.5],[1,0.5]];portConstraint=eastwest;whiteSpace=wrap;html=1;" parent="lVDe1UibVYgoFe94r_Ij-7" vertex="1">
          <mxGeometry y="502" width="240" height="26" as="geometry" />
        </mxCell>
        <mxCell id="AatP9Vk5JP6GM1xrLjcz-2" value="+ Equals(object): override bool" style="text;strokeColor=none;fillColor=none;align=left;verticalAlign=top;spacingLeft=4;spacingRight=4;overflow=hidden;rotatable=0;points=[[0,0.5],[1,0.5]];portConstraint=eastwest;whiteSpace=wrap;html=1;" parent="lVDe1UibVYgoFe94r_Ij-7" vertex="1">
          <mxGeometry y="528" width="240" height="26" as="geometry" />
        </mxCell>
        <mxCell id="lVDe1UibVYgoFe94r_Ij-24" value="«enumeration»&lt;br&gt;OrderStatus" style="swimlane;fontStyle=0;childLayout=stackLayout;horizontal=1;startSize=40;fillColor=none;horizontalStack=0;resizeParent=1;resizeParentMax=0;resizeLast=0;collapsible=1;marginBottom=0;whiteSpace=wrap;html=1;" parent="1" vertex="1">
          <mxGeometry x="-720" y="316" width="140" height="222" as="geometry">
            <mxRectangle x="800" y="350" width="120" height="40" as="alternateBounds" />
          </mxGeometry>
        </mxCell>
        <mxCell id="lVDe1UibVYgoFe94r_Ij-25" value="PCcomponents" style="text;strokeColor=none;fillColor=none;align=left;verticalAlign=top;spacingLeft=4;spacingRight=4;overflow=hidden;rotatable=0;points=[[0,0.5],[1,0.5]];portConstraint=eastwest;whiteSpace=wrap;html=1;" parent="lVDe1UibVYgoFe94r_Ij-24" vertex="1">
          <mxGeometry y="40" width="140" height="26" as="geometry" />
        </mxCell>
        <mxCell id="lVDe1UibVYgoFe94r_Ij-26" value="Phones" style="text;strokeColor=none;fillColor=none;align=left;verticalAlign=top;spacingLeft=4;spacingRight=4;overflow=hidden;rotatable=0;points=[[0,0.5],[1,0.5]];portConstraint=eastwest;whiteSpace=wrap;html=1;" parent="lVDe1UibVYgoFe94r_Ij-24" vertex="1">
          <mxGeometry y="66" width="140" height="26" as="geometry" />
        </mxCell>
        <mxCell id="lVDe1UibVYgoFe94r_Ij-27" value="DomesticAppliances" style="text;strokeColor=none;fillColor=none;align=left;verticalAlign=top;spacingLeft=4;spacingRight=4;overflow=hidden;rotatable=0;points=[[0,0.5],[1,0.5]];portConstraint=eastwest;whiteSpace=wrap;html=1;" parent="lVDe1UibVYgoFe94r_Ij-24" vertex="1">
          <mxGeometry y="92" width="140" height="26" as="geometry" />
        </mxCell>
        <mxCell id="lVDe1UibVYgoFe94r_Ij-28" value="Building" style="text;strokeColor=none;fillColor=none;align=left;verticalAlign=top;spacingLeft=4;spacingRight=4;overflow=hidden;rotatable=0;points=[[0,0.5],[1,0.5]];portConstraint=eastwest;whiteSpace=wrap;html=1;" parent="lVDe1UibVYgoFe94r_Ij-24" vertex="1">
          <mxGeometry y="118" width="140" height="26" as="geometry" />
        </mxCell>
        <mxCell id="lVDe1UibVYgoFe94r_Ij-29" value="Furniture" style="text;strokeColor=none;fillColor=none;align=left;verticalAlign=top;spacingLeft=4;spacingRight=4;overflow=hidden;rotatable=0;points=[[0,0.5],[1,0.5]];portConstraint=eastwest;whiteSpace=wrap;html=1;" parent="lVDe1UibVYgoFe94r_Ij-24" vertex="1">
          <mxGeometry y="144" width="140" height="26" as="geometry" />
        </mxCell>
        <mxCell id="lVDe1UibVYgoFe94r_Ij-30" value="Entertainments" style="text;strokeColor=none;fillColor=none;align=left;verticalAlign=top;spacingLeft=4;spacingRight=4;overflow=hidden;rotatable=0;points=[[0,0.5],[1,0.5]];portConstraint=eastwest;whiteSpace=wrap;html=1;" parent="lVDe1UibVYgoFe94r_Ij-24" vertex="1">
          <mxGeometry y="170" width="140" height="26" as="geometry" />
        </mxCell>
        <mxCell id="lVDe1UibVYgoFe94r_Ij-31" value="CarGoods" style="text;strokeColor=none;fillColor=none;align=left;verticalAlign=top;spacingLeft=4;spacingRight=4;overflow=hidden;rotatable=0;points=[[0,0.5],[1,0.5]];portConstraint=eastwest;whiteSpace=wrap;html=1;" parent="lVDe1UibVYgoFe94r_Ij-24" vertex="1">
          <mxGeometry y="196" width="140" height="26" as="geometry" />
        </mxCell>
        <mxCell id="lVDe1UibVYgoFe94r_Ij-32" value="Use" style="endArrow=open;endSize=12;dashed=1;html=1;rounded=0;exitX=1;exitY=0.5;exitDx=0;exitDy=0;entryX=0;entryY=0.5;entryDx=0;entryDy=0;" parent="1" source="lVDe1UibVYgoFe94r_Ij-27" target="lVDe1UibVYgoFe94r_Ij-8" edge="1">
          <mxGeometry width="160" relative="1" as="geometry">
            <mxPoint x="-550" y="460" as="sourcePoint" />
            <mxPoint x="-550" y="430" as="targetPoint" />
          </mxGeometry>
        </mxCell>
        <mxCell id="lVDe1UibVYgoFe94r_Ij-33" value="1" style="endArrow=open;html=1;endSize=12;startArrow=diamondThin;startSize=14;startFill=0;edgeStyle=orthogonalEdgeStyle;align=left;verticalAlign=top;rounded=0;labelPosition=right;verticalLabelPosition=bottom;horizontal=1;exitX=0.5;exitY=1.003;exitDx=0;exitDy=0;exitPerimeter=0;" parent="1" source="lVDe1UibVYgoFe94r_Ij-6" target="AatP9Vk5JP6GM1xrLjcz-9" edge="1">
          <mxGeometry x="-1" y="3" relative="1" as="geometry">
            <mxPoint x="-120" y="940" as="sourcePoint" />
            <mxPoint x="646" y="810" as="targetPoint" />
            <Array as="points">
              <mxPoint x="-120" y="1010" />
              <mxPoint x="646" y="1010" />
            </Array>
          </mxGeometry>
        </mxCell>
        <mxCell id="lVDe1UibVYgoFe94r_Ij-34" value="&lt;div style=&quot;&quot;&gt;&lt;br&gt;&lt;/div&gt;" style="endArrow=open;html=1;endSize=12;startArrow=diamondThin;startSize=14;startFill=1;edgeStyle=orthogonalEdgeStyle;align=left;verticalAlign=top;rounded=0;labelPosition=right;verticalLabelPosition=bottom;entryX=0.5;entryY=0;entryDx=0;entryDy=0;exitX=0.204;exitY=1;exitDx=0;exitDy=0;exitPerimeter=0;" parent="1" source="phYLgja38qa1CTjOd_SN-3" target="lVDe1UibVYgoFe94r_Ij-1" edge="1">
          <mxGeometry x="-1" y="3" relative="1" as="geometry">
            <mxPoint x="90" y="780" as="sourcePoint" />
            <mxPoint x="20" y="670" as="targetPoint" />
          </mxGeometry>
        </mxCell>
        <mxCell id="lVDe1UibVYgoFe94r_Ij-35" value="&lt;font style=&quot;font-size: 14px;&quot;&gt;1&lt;/font&gt;" style="text;html=1;align=center;verticalAlign=middle;resizable=0;points=[];autosize=1;strokeColor=none;fillColor=none;" parent="1" vertex="1">
          <mxGeometry x="-120" y="800" width="30" height="30" as="geometry" />
        </mxCell>
        <mxCell id="lVDe1UibVYgoFe94r_Ij-36" value="&lt;font style=&quot;font-size: 20px;&quot;&gt;*&lt;/font&gt;" style="text;html=1;align=center;verticalAlign=middle;resizable=0;points=[];autosize=1;strokeColor=none;fillColor=none;" parent="1" vertex="1">
          <mxGeometry x="90" y="759" width="30" height="40" as="geometry" />
        </mxCell>
        <mxCell id="-F8Q1V_g5fa-UAAVx8Ue-4" value="1" style="endArrow=open;html=1;endSize=12;startArrow=diamondThin;startSize=14;startFill=1;edgeStyle=orthogonalEdgeStyle;align=right;verticalAlign=bottom;rounded=0;entryX=0.5;entryY=0;entryDx=0;entryDy=0;exitX=0;exitY=0;exitDx=0;exitDy=0;" parent="1" source="EkHCMVU59h59knE90Hll-18" target="lVDe1UibVYgoFe94r_Ij-7" edge="1">
          <mxGeometry x="-1" y="3" relative="1" as="geometry">
            <mxPoint x="60" y="230" as="sourcePoint" />
            <mxPoint x="-400" y="230" as="targetPoint" />
            <Array as="points">
              <mxPoint x="40" y="200" />
              <mxPoint x="-400" y="200" />
            </Array>
          </mxGeometry>
        </mxCell>
        <mxCell id="-F8Q1V_g5fa-UAAVx8Ue-5" value="&lt;font style=&quot;font-size: 14px;&quot;&gt;1&lt;/font&gt;" style="text;html=1;align=center;verticalAlign=middle;resizable=0;points=[];autosize=1;strokeColor=none;fillColor=none;" parent="1" vertex="1">
          <mxGeometry x="-400" y="222" width="30" height="30" as="geometry" />
        </mxCell>
        <mxCell id="nUYODnXPmWr-A2Utp6na-1" value="PriorityOrder" style="swimlane;fontStyle=1;align=center;verticalAlign=top;childLayout=stackLayout;horizontal=1;startSize=26;horizontalStack=0;resizeParent=1;resizeParentMax=0;resizeLast=0;collapsible=1;marginBottom=0;whiteSpace=wrap;html=1;" parent="1" vertex="1">
          <mxGeometry x="-530" y="910" width="260" height="190" as="geometry" />
        </mxCell>
        <mxCell id="nUYODnXPmWr-A2Utp6na-2" value="- _requestedDeliveryTime: string" style="text;strokeColor=none;fillColor=none;align=left;verticalAlign=top;spacingLeft=4;spacingRight=4;overflow=hidden;rotatable=0;points=[[0,0.5],[1,0.5]];portConstraint=eastwest;whiteSpace=wrap;html=1;" parent="nUYODnXPmWr-A2Utp6na-1" vertex="1">
          <mxGeometry y="26" width="260" height="26" as="geometry" />
        </mxCell>
        <mxCell id="nUYODnXPmWr-A2Utp6na-5" value="-&amp;nbsp;_requestedDeliveryDate: DateTime" style="text;strokeColor=none;fillColor=none;align=left;verticalAlign=top;spacingLeft=4;spacingRight=4;overflow=hidden;rotatable=0;points=[[0,0.5],[1,0.5]];portConstraint=eastwest;whiteSpace=wrap;html=1;" parent="nUYODnXPmWr-A2Utp6na-1" vertex="1">
          <mxGeometry y="52" width="260" height="26" as="geometry" />
        </mxCell>
        <mxCell id="nUYODnXPmWr-A2Utp6na-3" value="" style="line;strokeWidth=1;fillColor=none;align=left;verticalAlign=middle;spacingTop=-1;spacingLeft=3;spacingRight=3;rotatable=0;labelPosition=right;points=[];portConstraint=eastwest;strokeColor=inherit;" parent="nUYODnXPmWr-A2Utp6na-1" vertex="1">
          <mxGeometry y="78" width="260" height="8" as="geometry" />
        </mxCell>
        <mxCell id="nUYODnXPmWr-A2Utp6na-4" value="+&amp;nbsp;RequestedDeliveryTime {get;set;}: string" style="text;strokeColor=none;fillColor=none;align=left;verticalAlign=top;spacingLeft=4;spacingRight=4;overflow=hidden;rotatable=0;points=[[0,0.5],[1,0.5]];portConstraint=eastwest;whiteSpace=wrap;html=1;" parent="nUYODnXPmWr-A2Utp6na-1" vertex="1">
          <mxGeometry y="86" width="260" height="26" as="geometry" />
        </mxCell>
        <mxCell id="nUYODnXPmWr-A2Utp6na-6" value="+&amp;nbsp;RequestedDeliveryDate {get;set:}: DateTime" style="text;strokeColor=none;fillColor=none;align=left;verticalAlign=top;spacingLeft=4;spacingRight=4;overflow=hidden;rotatable=0;points=[[0,0.5],[1,0.5]];portConstraint=eastwest;whiteSpace=wrap;html=1;" parent="nUYODnXPmWr-A2Utp6na-1" vertex="1">
          <mxGeometry y="112" width="260" height="26" as="geometry" />
        </mxCell>
        <mxCell id="nUYODnXPmWr-A2Utp6na-7" value="+&amp;nbsp;PriorityOrder (string, DateTime): void" style="text;strokeColor=none;fillColor=none;align=left;verticalAlign=top;spacingLeft=4;spacingRight=4;overflow=hidden;rotatable=0;points=[[0,0.5],[1,0.5]];portConstraint=eastwest;whiteSpace=wrap;html=1;" parent="nUYODnXPmWr-A2Utp6na-1" vertex="1">
          <mxGeometry y="138" width="260" height="26" as="geometry" />
        </mxCell>
        <mxCell id="nUYODnXPmWr-A2Utp6na-8" value="+&amp;nbsp;PriorityOrder: void" style="text;strokeColor=none;fillColor=none;align=left;verticalAlign=top;spacingLeft=4;spacingRight=4;overflow=hidden;rotatable=0;points=[[0,0.5],[1,0.5]];portConstraint=eastwest;whiteSpace=wrap;html=1;" parent="nUYODnXPmWr-A2Utp6na-1" vertex="1">
          <mxGeometry y="164" width="260" height="26" as="geometry" />
        </mxCell>
        <mxCell id="AYyKFVhbFvLpL1oln4wP-1" value="" style="endArrow=block;endSize=16;endFill=0;html=1;rounded=0;exitX=0.5;exitY=1;exitDx=0;exitDy=0;entryX=0.5;entryY=0;entryDx=0;entryDy=0;" parent="1" source="lVDe1UibVYgoFe94r_Ij-7" target="nUYODnXPmWr-A2Utp6na-1" edge="1">
          <mxGeometry width="160" relative="1" as="geometry">
            <mxPoint x="-400" y="690" as="sourcePoint" />
            <mxPoint x="-600" y="700" as="targetPoint" />
          </mxGeometry>
        </mxCell>
        <mxCell id="DQWQqXRPn_060vAOzwSm-1" value="PointsDiscount" style="swimlane;fontStyle=1;align=center;verticalAlign=top;childLayout=stackLayout;horizontal=1;startSize=26;horizontalStack=0;resizeParent=1;resizeParentMax=0;resizeLast=0;collapsible=1;marginBottom=0;whiteSpace=wrap;html=1;" parent="1" vertex="1">
          <mxGeometry x="-220" y="-192" width="200" height="190" as="geometry" />
        </mxCell>
        <mxCell id="DQWQqXRPn_060vAOzwSm-2" value="- _pointsCount: int" style="text;strokeColor=none;fillColor=none;align=left;verticalAlign=top;spacingLeft=4;spacingRight=4;overflow=hidden;rotatable=0;points=[[0,0.5],[1,0.5]];portConstraint=eastwest;whiteSpace=wrap;html=1;" parent="DQWQqXRPn_060vAOzwSm-1" vertex="1">
          <mxGeometry y="26" width="200" height="26" as="geometry" />
        </mxCell>
        <mxCell id="DQWQqXRPn_060vAOzwSm-3" value="" style="line;strokeWidth=1;fillColor=none;align=left;verticalAlign=middle;spacingTop=-1;spacingLeft=3;spacingRight=3;rotatable=0;labelPosition=right;points=[];portConstraint=eastwest;strokeColor=inherit;" parent="DQWQqXRPn_060vAOzwSm-1" vertex="1">
          <mxGeometry y="52" width="200" height="8" as="geometry" />
        </mxCell>
        <mxCell id="DQWQqXRPn_060vAOzwSm-4" value="+ PointsCount {get;private set;}: int" style="text;strokeColor=none;fillColor=none;align=left;verticalAlign=top;spacingLeft=4;spacingRight=4;overflow=hidden;rotatable=0;points=[[0,0.5],[1,0.5]];portConstraint=eastwest;whiteSpace=wrap;html=1;" parent="DQWQqXRPn_060vAOzwSm-1" vertex="1">
          <mxGeometry y="60" width="200" height="26" as="geometry" />
        </mxCell>
        <mxCell id="DQWQqXRPn_060vAOzwSm-5" value="+ Calculate(List&amp;lt;Item&amp;gt;): int" style="text;strokeColor=none;fillColor=none;align=left;verticalAlign=top;spacingLeft=4;spacingRight=4;overflow=hidden;rotatable=0;points=[[0,0.5],[1,0.5]];portConstraint=eastwest;whiteSpace=wrap;html=1;" parent="DQWQqXRPn_060vAOzwSm-1" vertex="1">
          <mxGeometry y="86" width="200" height="26" as="geometry" />
        </mxCell>
        <mxCell id="DQWQqXRPn_060vAOzwSm-6" value="+ Apply(List&amp;lt;Item&amp;gt;): int" style="text;strokeColor=none;fillColor=none;align=left;verticalAlign=top;spacingLeft=4;spacingRight=4;overflow=hidden;rotatable=0;points=[[0,0.5],[1,0.5]];portConstraint=eastwest;whiteSpace=wrap;html=1;" parent="DQWQqXRPn_060vAOzwSm-1" vertex="1">
          <mxGeometry y="112" width="200" height="26" as="geometry" />
        </mxCell>
        <mxCell id="DQWQqXRPn_060vAOzwSm-18" value="+ Update(List&amp;lt;Item&amp;gt;): void" style="text;strokeColor=none;fillColor=none;align=left;verticalAlign=top;spacingLeft=4;spacingRight=4;overflow=hidden;rotatable=0;points=[[0,0.5],[1,0.5]];portConstraint=eastwest;whiteSpace=wrap;html=1;" parent="DQWQqXRPn_060vAOzwSm-1" vertex="1">
          <mxGeometry y="138" width="200" height="26" as="geometry" />
        </mxCell>
        <mxCell id="AatP9Vk5JP6GM1xrLjcz-11" value="+ CompareTo(object): int" style="text;strokeColor=none;fillColor=none;align=left;verticalAlign=top;spacingLeft=4;spacingRight=4;overflow=hidden;rotatable=0;points=[[0,0.5],[1,0.5]];portConstraint=eastwest;whiteSpace=wrap;html=1;" parent="DQWQqXRPn_060vAOzwSm-1" vertex="1">
          <mxGeometry y="164" width="200" height="26" as="geometry" />
        </mxCell>
        <mxCell id="DQWQqXRPn_060vAOzwSm-7" value="PercentDiscount" style="swimlane;fontStyle=1;align=center;verticalAlign=top;childLayout=stackLayout;horizontal=1;startSize=26;horizontalStack=0;resizeParent=1;resizeParentMax=0;resizeLast=0;collapsible=1;marginBottom=0;whiteSpace=wrap;html=1;" parent="1" vertex="1">
          <mxGeometry x="220" y="-244" width="240" height="294" as="geometry" />
        </mxCell>
        <mxCell id="DQWQqXRPn_060vAOzwSm-12" value="- _category: Category" style="text;strokeColor=none;fillColor=none;align=left;verticalAlign=top;spacingLeft=4;spacingRight=4;overflow=hidden;rotatable=0;points=[[0,0.5],[1,0.5]];portConstraint=eastwest;whiteSpace=wrap;html=1;" parent="DQWQqXRPn_060vAOzwSm-7" vertex="1">
          <mxGeometry y="26" width="240" height="26" as="geometry" />
        </mxCell>
        <mxCell id="DQWQqXRPn_060vAOzwSm-11" value="- _currentDiscount: double" style="text;strokeColor=none;fillColor=none;align=left;verticalAlign=top;spacingLeft=4;spacingRight=4;overflow=hidden;rotatable=0;points=[[0,0.5],[1,0.5]];portConstraint=eastwest;whiteSpace=wrap;html=1;" parent="DQWQqXRPn_060vAOzwSm-7" vertex="1">
          <mxGeometry y="52" width="240" height="26" as="geometry" />
        </mxCell>
        <mxCell id="DQWQqXRPn_060vAOzwSm-8" value="- _amount: double" style="text;strokeColor=none;fillColor=none;align=left;verticalAlign=top;spacingLeft=4;spacingRight=4;overflow=hidden;rotatable=0;points=[[0,0.5],[1,0.5]];portConstraint=eastwest;whiteSpace=wrap;html=1;" parent="DQWQqXRPn_060vAOzwSm-7" vertex="1">
          <mxGeometry y="78" width="240" height="26" as="geometry" />
        </mxCell>
        <mxCell id="DQWQqXRPn_060vAOzwSm-9" value="" style="line;strokeWidth=1;fillColor=none;align=left;verticalAlign=middle;spacingTop=-1;spacingLeft=3;spacingRight=3;rotatable=0;labelPosition=right;points=[];portConstraint=eastwest;strokeColor=inherit;" parent="DQWQqXRPn_060vAOzwSm-7" vertex="1">
          <mxGeometry y="104" width="240" height="8" as="geometry" />
        </mxCell>
        <mxCell id="DQWQqXRPn_060vAOzwSm-10" value="+ Amount {get;private set;}: double" style="text;strokeColor=none;fillColor=none;align=left;verticalAlign=top;spacingLeft=4;spacingRight=4;overflow=hidden;rotatable=0;points=[[0,0.5],[1,0.5]];portConstraint=eastwest;whiteSpace=wrap;html=1;" parent="DQWQqXRPn_060vAOzwSm-7" vertex="1">
          <mxGeometry y="112" width="240" height="26" as="geometry" />
        </mxCell>
        <mxCell id="DQWQqXRPn_060vAOzwSm-13" value="+ CurrentDiscount{get; private set;}: double" style="text;strokeColor=none;fillColor=none;align=left;verticalAlign=top;spacingLeft=4;spacingRight=4;overflow=hidden;rotatable=0;points=[[0,0.5],[1,0.5]];portConstraint=eastwest;whiteSpace=wrap;html=1;" parent="DQWQqXRPn_060vAOzwSm-7" vertex="1">
          <mxGeometry y="138" width="240" height="26" as="geometry" />
        </mxCell>
        <mxCell id="DQWQqXRPn_060vAOzwSm-14" value="+ Category {get; set;}: Category" style="text;strokeColor=none;fillColor=none;align=left;verticalAlign=top;spacingLeft=4;spacingRight=4;overflow=hidden;rotatable=0;points=[[0,0.5],[1,0.5]];portConstraint=eastwest;whiteSpace=wrap;html=1;" parent="DQWQqXRPn_060vAOzwSm-7" vertex="1">
          <mxGeometry y="164" width="240" height="26" as="geometry" />
        </mxCell>
        <mxCell id="DQWQqXRPn_060vAOzwSm-15" value="+ Calculate(List&amp;lt;Item&amp;gt;): int" style="text;strokeColor=none;fillColor=none;align=left;verticalAlign=top;spacingLeft=4;spacingRight=4;overflow=hidden;rotatable=0;points=[[0,0.5],[1,0.5]];portConstraint=eastwest;whiteSpace=wrap;html=1;" parent="DQWQqXRPn_060vAOzwSm-7" vertex="1">
          <mxGeometry y="190" width="240" height="26" as="geometry" />
        </mxCell>
        <mxCell id="DQWQqXRPn_060vAOzwSm-16" value="+ Apply(List&amp;lt;Item&amp;gt;): int" style="text;strokeColor=none;fillColor=none;align=left;verticalAlign=top;spacingLeft=4;spacingRight=4;overflow=hidden;rotatable=0;points=[[0,0.5],[1,0.5]];portConstraint=eastwest;whiteSpace=wrap;html=1;" parent="DQWQqXRPn_060vAOzwSm-7" vertex="1">
          <mxGeometry y="216" width="240" height="26" as="geometry" />
        </mxCell>
        <mxCell id="DQWQqXRPn_060vAOzwSm-17" value="+ Update(List&amp;lt;Item&amp;gt;): void" style="text;strokeColor=none;fillColor=none;align=left;verticalAlign=top;spacingLeft=4;spacingRight=4;overflow=hidden;rotatable=0;points=[[0,0.5],[1,0.5]];portConstraint=eastwest;whiteSpace=wrap;html=1;" parent="DQWQqXRPn_060vAOzwSm-7" vertex="1">
          <mxGeometry y="242" width="240" height="26" as="geometry" />
        </mxCell>
        <mxCell id="AatP9Vk5JP6GM1xrLjcz-12" value="+ CompareTo(object): int" style="text;strokeColor=none;fillColor=none;align=left;verticalAlign=top;spacingLeft=4;spacingRight=4;overflow=hidden;rotatable=0;points=[[0,0.5],[1,0.5]];portConstraint=eastwest;whiteSpace=wrap;html=1;" parent="DQWQqXRPn_060vAOzwSm-7" vertex="1">
          <mxGeometry y="268" width="240" height="26" as="geometry" />
        </mxCell>
        <mxCell id="MM8psumMlT4RhVUM4Cc8-3" value="" style="endArrow=block;dashed=1;endFill=0;endSize=12;html=1;rounded=0;entryX=0.002;entryY=0.278;entryDx=0;entryDy=0;exitX=1;exitY=0.5;exitDx=0;exitDy=0;entryPerimeter=0;" parent="1" source="DQWQqXRPn_060vAOzwSm-4" target="MM8psumMlT4RhVUM4Cc8-8" edge="1">
          <mxGeometry width="160" relative="1" as="geometry">
            <mxPoint x="-110" y="-280" as="sourcePoint" />
            <mxPoint x="50" y="-116.99999999999977" as="targetPoint" />
          </mxGeometry>
        </mxCell>
        <mxCell id="MM8psumMlT4RhVUM4Cc8-4" value="" style="endArrow=block;dashed=1;endFill=0;endSize=12;html=1;rounded=0;entryX=1.002;entryY=0.278;entryDx=0;entryDy=0;exitX=0;exitY=0.5;exitDx=0;exitDy=0;entryPerimeter=0;" parent="1" source="DQWQqXRPn_060vAOzwSm-10" target="MM8psumMlT4RhVUM4Cc8-8" edge="1">
          <mxGeometry width="160" relative="1" as="geometry">
            <mxPoint y="-250" as="sourcePoint" />
            <mxPoint x="160" y="-116.99999999999977" as="targetPoint" />
          </mxGeometry>
        </mxCell>
        <mxCell id="MM8psumMlT4RhVUM4Cc8-5" value="1" style="endArrow=open;html=1;endSize=12;startArrow=diamondThin;startSize=14;startFill=1;edgeStyle=orthogonalEdgeStyle;align=right;verticalAlign=bottom;rounded=0;exitX=0.282;exitY=-0.001;exitDx=0;exitDy=0;exitPerimeter=0;entryX=0.504;entryY=1.004;entryDx=0;entryDy=0;entryPerimeter=0;" parent="1" source="EkHCMVU59h59knE90Hll-18" target="MM8psumMlT4RhVUM4Cc8-10" edge="1">
          <mxGeometry x="-1" y="3" relative="1" as="geometry">
            <mxPoint x="30" as="sourcePoint" />
            <mxPoint x="120" y="-160" as="targetPoint" />
          </mxGeometry>
        </mxCell>
        <mxCell id="MM8psumMlT4RhVUM4Cc8-6" value="*" style="text;html=1;align=center;verticalAlign=middle;resizable=0;points=[];autosize=1;strokeColor=none;fillColor=none;" parent="1" vertex="1">
          <mxGeometry x="105" y="-75" width="30" height="30" as="geometry" />
        </mxCell>
        <mxCell id="MM8psumMlT4RhVUM4Cc8-7" value="«interface»&lt;br style=&quot;border-color: var(--border-color);&quot;&gt;&lt;b style=&quot;border-color: var(--border-color);&quot;&gt;IDiscount&lt;/b&gt;" style="swimlane;fontStyle=0;childLayout=stackLayout;horizontal=1;startSize=40;fillColor=none;horizontalStack=0;resizeParent=1;resizeParentMax=0;resizeLast=0;collapsible=1;marginBottom=0;whiteSpace=wrap;html=1;" parent="1" vertex="1">
          <mxGeometry x="25" y="-166" width="165" height="118" as="geometry" />
        </mxCell>
        <mxCell id="MM8psumMlT4RhVUM4Cc8-8" value="+ Calculate(List&amp;lt;Item&amp;gt;): int" style="text;strokeColor=none;fillColor=none;align=left;verticalAlign=top;spacingLeft=4;spacingRight=4;overflow=hidden;rotatable=0;points=[[0,0.5],[1,0.5]];portConstraint=eastwest;whiteSpace=wrap;html=1;" parent="MM8psumMlT4RhVUM4Cc8-7" vertex="1">
          <mxGeometry y="40" width="165" height="26" as="geometry" />
        </mxCell>
        <mxCell id="MM8psumMlT4RhVUM4Cc8-9" value="+ Apply(List&amp;lt;Item&amp;gt;): int" style="text;strokeColor=none;fillColor=none;align=left;verticalAlign=top;spacingLeft=4;spacingRight=4;overflow=hidden;rotatable=0;points=[[0,0.5],[1,0.5]];portConstraint=eastwest;whiteSpace=wrap;html=1;" parent="MM8psumMlT4RhVUM4Cc8-7" vertex="1">
          <mxGeometry y="66" width="165" height="26" as="geometry" />
        </mxCell>
        <mxCell id="MM8psumMlT4RhVUM4Cc8-10" value="+ Update(List&amp;lt;Item&amp;gt;): void" style="text;strokeColor=none;fillColor=none;align=left;verticalAlign=top;spacingLeft=4;spacingRight=4;overflow=hidden;rotatable=0;points=[[0,0.5],[1,0.5]];portConstraint=eastwest;whiteSpace=wrap;html=1;" parent="MM8psumMlT4RhVUM4Cc8-7" vertex="1">
          <mxGeometry y="92" width="165" height="26" as="geometry" />
        </mxCell>
        <mxCell id="AatP9Vk5JP6GM1xrLjcz-10" value="«interface»&lt;br&gt;&lt;b&gt;IComparable&lt;/b&gt;" style="html=1;whiteSpace=wrap;" parent="1" vertex="1">
          <mxGeometry x="-175" y="-294" width="110" height="50" as="geometry" />
        </mxCell>
        <mxCell id="AatP9Vk5JP6GM1xrLjcz-13" value="Use" style="endArrow=open;endSize=12;dashed=1;html=1;rounded=0;entryX=0.5;entryY=0;entryDx=0;entryDy=0;exitX=0.5;exitY=1;exitDx=0;exitDy=0;" parent="1" source="AatP9Vk5JP6GM1xrLjcz-10" target="DQWQqXRPn_060vAOzwSm-1" edge="1">
          <mxGeometry width="160" relative="1" as="geometry">
            <mxPoint x="-350" y="-250" as="sourcePoint" />
            <mxPoint x="-190" y="-250" as="targetPoint" />
          </mxGeometry>
        </mxCell>
        <mxCell id="AatP9Vk5JP6GM1xrLjcz-14" value="«interface»&lt;br&gt;&lt;b&gt;IComparable&lt;/b&gt;" style="html=1;whiteSpace=wrap;" parent="1" vertex="1">
          <mxGeometry x="285" y="-344" width="110" height="50" as="geometry" />
        </mxCell>
        <mxCell id="AatP9Vk5JP6GM1xrLjcz-15" value="Use" style="endArrow=open;endSize=12;dashed=1;html=1;rounded=0;entryX=0.5;entryY=0;entryDx=0;entryDy=0;exitX=0.5;exitY=1;exitDx=0;exitDy=0;" parent="1" source="AatP9Vk5JP6GM1xrLjcz-14" target="DQWQqXRPn_060vAOzwSm-7" edge="1">
          <mxGeometry width="160" relative="1" as="geometry">
            <mxPoint x="260" y="-340" as="sourcePoint" />
            <mxPoint x="260" y="-288" as="targetPoint" />
          </mxGeometry>
        </mxCell>
        <mxCell id="AatP9Vk5JP6GM1xrLjcz-16" value="«interface»&lt;br&gt;&lt;b&gt;ICloneable&lt;/b&gt;" style="html=1;whiteSpace=wrap;" parent="1" vertex="1">
          <mxGeometry x="-340" y="50" width="110" height="50" as="geometry" />
        </mxCell>
        <mxCell id="AatP9Vk5JP6GM1xrLjcz-17" value="«interface»&lt;br&gt;&lt;b&gt;IEquatable&lt;/b&gt;" style="html=1;whiteSpace=wrap;" parent="1" vertex="1">
          <mxGeometry x="-210" y="50" width="110" height="50" as="geometry" />
        </mxCell>
        <mxCell id="AatP9Vk5JP6GM1xrLjcz-18" value="«interface»&lt;br&gt;&lt;b&gt;ICloneable&lt;/b&gt;" style="html=1;whiteSpace=wrap;" parent="1" vertex="1">
          <mxGeometry x="30" y="870" width="110" height="50" as="geometry" />
        </mxCell>
        <mxCell id="AatP9Vk5JP6GM1xrLjcz-19" value="«interface»&lt;br&gt;&lt;b&gt;IEquatable&lt;/b&gt;" style="html=1;whiteSpace=wrap;" parent="1" vertex="1">
          <mxGeometry x="-705" y="586" width="110" height="50" as="geometry" />
        </mxCell>
        <mxCell id="AatP9Vk5JP6GM1xrLjcz-20" value="Use" style="endArrow=open;endSize=12;dashed=1;html=1;rounded=0;entryX=0;entryY=0.5;entryDx=0;entryDy=0;exitX=1;exitY=0.5;exitDx=0;exitDy=0;" parent="1" source="AatP9Vk5JP6GM1xrLjcz-19" target="lVDe1UibVYgoFe94r_Ij-21" edge="1">
          <mxGeometry width="160" relative="1" as="geometry">
            <mxPoint x="-690" y="700" as="sourcePoint" />
            <mxPoint x="-530" y="700" as="targetPoint" />
          </mxGeometry>
        </mxCell>
        <mxCell id="AatP9Vk5JP6GM1xrLjcz-21" value="Use" style="endArrow=open;endSize=12;dashed=1;html=1;rounded=0;entryX=1;entryY=0.5;entryDx=0;entryDy=0;exitX=0;exitY=0.5;exitDx=0;exitDy=0;" parent="1" source="AatP9Vk5JP6GM1xrLjcz-18" target="lVDe1UibVYgoFe94r_Ij-2" edge="1">
          <mxGeometry width="160" relative="1" as="geometry">
            <mxPoint x="130" y="950" as="sourcePoint" />
            <mxPoint x="290" y="950" as="targetPoint" />
          </mxGeometry>
        </mxCell>
        <mxCell id="AatP9Vk5JP6GM1xrLjcz-22" value="Use" style="endArrow=open;endSize=12;dashed=1;html=1;rounded=0;entryX=0.34;entryY=-0.001;entryDx=0;entryDy=0;entryPerimeter=0;exitX=0.5;exitY=1;exitDx=0;exitDy=0;" parent="1" source="AatP9Vk5JP6GM1xrLjcz-17" target="hicgtg7otHuUIutlruOk-7" edge="1">
          <mxGeometry width="160" relative="1" as="geometry">
            <mxPoint x="-330" y="140" as="sourcePoint" />
            <mxPoint x="-170" y="140" as="targetPoint" />
          </mxGeometry>
        </mxCell>
        <mxCell id="AatP9Vk5JP6GM1xrLjcz-23" value="Use" style="endArrow=open;endSize=12;dashed=1;html=1;rounded=0;exitX=0.5;exitY=1;exitDx=0;exitDy=0;entryX=0.103;entryY=0;entryDx=0;entryDy=0;entryPerimeter=0;" parent="1" source="AatP9Vk5JP6GM1xrLjcz-16" target="hicgtg7otHuUIutlruOk-7" edge="1">
          <mxGeometry width="160" relative="1" as="geometry">
            <mxPoint x="-380" y="140" as="sourcePoint" />
            <mxPoint x="-200" y="230" as="targetPoint" />
            <Array as="points">
              <mxPoint x="-285" y="170" />
              <mxPoint x="-200" y="170" />
            </Array>
          </mxGeometry>
        </mxCell>
        <mxCell id="AatP9Vk5JP6GM1xrLjcz-24" value="«interface»&lt;br&gt;&lt;b&gt;IEquatable&lt;/b&gt;" style="html=1;whiteSpace=wrap;" parent="1" vertex="1">
          <mxGeometry x="842" y="559" width="110" height="50" as="geometry" />
        </mxCell>
        <mxCell id="AatP9Vk5JP6GM1xrLjcz-25" value="«interface»&lt;br&gt;&lt;b&gt;ICloneable&lt;/b&gt;" style="html=1;whiteSpace=wrap;" parent="1" vertex="1">
          <mxGeometry x="842" y="700" width="110" height="50" as="geometry" />
        </mxCell>
        <mxCell id="AatP9Vk5JP6GM1xrLjcz-26" value="«interface»&lt;br&gt;&lt;b&gt;IComparable&lt;/b&gt;" style="html=1;whiteSpace=wrap;" parent="1" vertex="1">
          <mxGeometry x="842" y="630" width="110" height="50" as="geometry" />
        </mxCell>
        <mxCell id="AatP9Vk5JP6GM1xrLjcz-27" value="Use" style="endArrow=open;endSize=12;dashed=1;html=1;rounded=0;exitX=0;exitY=0.5;exitDx=0;exitDy=0;entryX=1.001;entryY=0.353;entryDx=0;entryDy=0;entryPerimeter=0;" parent="1" source="AatP9Vk5JP6GM1xrLjcz-24" target="EkHCMVU59h59knE90Hll-17" edge="1">
          <mxGeometry width="160" relative="1" as="geometry">
            <mxPoint x="970" y="620" as="sourcePoint" />
            <mxPoint x="780" y="584" as="targetPoint" />
          </mxGeometry>
        </mxCell>
        <mxCell id="AatP9Vk5JP6GM1xrLjcz-28" value="Use" style="endArrow=open;endSize=12;dashed=1;html=1;rounded=0;exitX=0;exitY=0.5;exitDx=0;exitDy=0;entryX=1.002;entryY=0.103;entryDx=0;entryDy=0;entryPerimeter=0;" parent="1" source="AatP9Vk5JP6GM1xrLjcz-26" target="phYLgja38qa1CTjOd_SN-5" edge="1">
          <mxGeometry width="160" relative="1" as="geometry">
            <mxPoint x="822" y="654.69" as="sourcePoint" />
            <mxPoint x="780" y="655" as="targetPoint" />
          </mxGeometry>
        </mxCell>
        <mxCell id="AatP9Vk5JP6GM1xrLjcz-29" value="Use" style="endArrow=open;endSize=12;dashed=1;html=1;rounded=0;exitX=0;exitY=0.5;exitDx=0;exitDy=0;entryX=1.002;entryY=0.798;entryDx=0;entryDy=0;entryPerimeter=0;" parent="1" source="AatP9Vk5JP6GM1xrLjcz-25" target="AatP9Vk5JP6GM1xrLjcz-7" edge="1">
          <mxGeometry width="160" relative="1" as="geometry">
            <mxPoint x="832" y="724.69" as="sourcePoint" />
            <mxPoint x="770" y="724.69" as="targetPoint" />
          </mxGeometry>
        </mxCell>
        <mxCell id="-qxApF1X3q2OOIQC9o7g-9" value="DataTools" style="swimlane;fontStyle=0;childLayout=stackLayout;horizontal=1;startSize=26;fillColor=none;horizontalStack=0;resizeParent=1;resizeParentMax=0;resizeLast=0;collapsible=1;marginBottom=0;whiteSpace=wrap;html=1;rounded=0;" vertex="1" parent="1">
          <mxGeometry x="827" y="50" width="340" height="208" as="geometry" />
        </mxCell>
        <mxCell id="-qxApF1X3q2OOIQC9o7g-10" value="+&amp;nbsp;FilterTextCriterion {get;set;}: string" style="text;strokeColor=none;fillColor=none;align=left;verticalAlign=top;spacingLeft=4;spacingRight=4;overflow=hidden;rotatable=0;points=[[0,0.5],[1,0.5]];portConstraint=eastwest;whiteSpace=wrap;html=1;rounded=0;fontStyle=4" vertex="1" parent="-qxApF1X3q2OOIQC9o7g-9">
          <mxGeometry y="26" width="340" height="26" as="geometry" />
        </mxCell>
        <mxCell id="-qxApF1X3q2OOIQC9o7g-11" value="+&amp;nbsp;ItemsFilterText (Item): bool" style="text;strokeColor=none;fillColor=none;align=left;verticalAlign=top;spacingLeft=4;spacingRight=4;overflow=hidden;rotatable=0;points=[[0,0.5],[1,0.5]];portConstraint=eastwest;whiteSpace=wrap;html=1;rounded=0;fontStyle=4" vertex="1" parent="-qxApF1X3q2OOIQC9o7g-9">
          <mxGeometry y="52" width="340" height="26" as="geometry" />
        </mxCell>
        <mxCell id="-qxApF1X3q2OOIQC9o7g-12" value="+&amp;nbsp;ItemsFilter (List&amp;lt;Item&amp;gt;,&amp;nbsp;Func&amp;lt;Item, bool&amp;gt;): List&amp;lt;Item&amp;gt;" style="text;strokeColor=none;fillColor=none;align=left;verticalAlign=top;spacingLeft=4;spacingRight=4;overflow=hidden;rotatable=0;points=[[0,0.5],[1,0.5]];portConstraint=eastwest;whiteSpace=wrap;html=1;rounded=0;fontStyle=4" vertex="1" parent="-qxApF1X3q2OOIQC9o7g-9">
          <mxGeometry y="78" width="340" height="26" as="geometry" />
        </mxCell>
        <mxCell id="-qxApF1X3q2OOIQC9o7g-13" value="+&amp;nbsp;SortByName (Item, Item): bool" style="text;strokeColor=none;fillColor=none;align=left;verticalAlign=top;spacingLeft=4;spacingRight=4;overflow=hidden;rotatable=0;points=[[0,0.5],[1,0.5]];portConstraint=eastwest;whiteSpace=wrap;html=1;rounded=0;fontStyle=4" vertex="1" parent="-qxApF1X3q2OOIQC9o7g-9">
          <mxGeometry y="104" width="340" height="26" as="geometry" />
        </mxCell>
        <mxCell id="-qxApF1X3q2OOIQC9o7g-14" value="+&amp;nbsp;SortByCostAscending (Item, Item): bool" style="text;strokeColor=none;fillColor=none;align=left;verticalAlign=top;spacingLeft=4;spacingRight=4;overflow=hidden;rotatable=0;points=[[0,0.5],[1,0.5]];portConstraint=eastwest;whiteSpace=wrap;html=1;rounded=0;fontStyle=4" vertex="1" parent="-qxApF1X3q2OOIQC9o7g-9">
          <mxGeometry y="130" width="340" height="26" as="geometry" />
        </mxCell>
        <mxCell id="-qxApF1X3q2OOIQC9o7g-15" value="+&amp;nbsp;SortByCostDescending (Item, Item): bool" style="text;strokeColor=none;fillColor=none;align=left;verticalAlign=top;spacingLeft=4;spacingRight=4;overflow=hidden;rotatable=0;points=[[0,0.5],[1,0.5]];portConstraint=eastwest;whiteSpace=wrap;html=1;rounded=0;fontStyle=4" vertex="1" parent="-qxApF1X3q2OOIQC9o7g-9">
          <mxGeometry y="156" width="340" height="26" as="geometry" />
        </mxCell>
        <mxCell id="-qxApF1X3q2OOIQC9o7g-16" value="+&amp;nbsp;ItemsSort (List&amp;lt;Item&amp;gt;,&amp;nbsp;Func&amp;lt;Item, Item, bool&amp;gt;): List&amp;lt;Item&amp;gt;" style="text;strokeColor=none;fillColor=none;align=left;verticalAlign=top;spacingLeft=4;spacingRight=4;overflow=hidden;rotatable=0;points=[[0,0.5],[1,0.5]];portConstraint=eastwest;whiteSpace=wrap;html=1;rounded=0;fontStyle=4" vertex="1" parent="-qxApF1X3q2OOIQC9o7g-9">
          <mxGeometry y="182" width="340" height="26" as="geometry" />
        </mxCell>
        <mxCell id="-qxApF1X3q2OOIQC9o7g-17" value="Use" style="endArrow=open;endSize=12;dashed=1;html=1;rounded=0;exitX=0;exitY=0.5;exitDx=0;exitDy=0;entryX=0.648;entryY=-0.002;entryDx=0;entryDy=0;entryPerimeter=0;" edge="1" parent="1" source="-qxApF1X3q2OOIQC9o7g-13" target="EkHCMVU59h59knE90Hll-3">
          <mxGeometry width="160" relative="1" as="geometry">
            <mxPoint x="810" y="150" as="sourcePoint" />
            <mxPoint x="690" y="180" as="targetPoint" />
            <Array as="points">
              <mxPoint x="679" y="167" />
            </Array>
          </mxGeometry>
        </mxCell>
      </root>
    </mxGraphModel>
  </diagram>
</mxfile>
